<?xml version="1.0" encoding="utf-8"?>
<!-- Generator: Adobe Illustrator 25.4.1, SVG Export Plug-In . SVG Version: 6.00 Build 0)  -->
<svg version="1.1" id="Layer_1" xmlns="http://www.w3.org/2000/svg" xmlns:xlink="http://www.w3.org/1999/xlink" x="0px" y="0px"
	 viewBox="0 0 514 307.5" style="enable-background:new 0 0 514 307.5;" xml:space="preserve">
<style type="text/css">
	.st0{fill:#D1922C;}
</style>
<g>
	<g id="XMLID_00000083810563590825066940000005404418132096885930_">
		<g id="XMLID_00000183961089380274287170000006805131649528938918_">
			<path id="XMLID_00000144308552635238763120000017776964712850584466_" class="st0" d="M427.4,287.8c-3.2-1-6.1-2.6-8.6-4.6
				c2.1-1.3,4.4-2.4,6.7-3.4c2.3-1,4.7-1.8,7.3-2.4c1.8-0.4,3.8-0.7,5.7-1c7.2-0.9,14.3,0.2,20.1,2.9c-2.1,2.1-4.5,3.7-6.9,5.2
				c-1.2,0.7-2.5,1.4-3.8,2s-2.7,1-4,1.4c-2,0.5-4,0.9-5.9,1.1C434.2,289.3,430.6,288.8,427.4,287.8z"/>
			<path id="XMLID_00000165917402186469502450000013356437207510445714_" class="st0" d="M416.1,280.1c-1.7-2.8-2.9-5.8-3.8-8.9
				s-1.4-6.3-1.6-9.7c-0.1-1.8-0.1-3.5,0.1-5.1c0.1-1.1,0.3-2.2,0.4-3.3s0.4-2.1,0.6-3.2c0.5-2.1,1.3-3.9,2.1-5.7
				c4.5,4.7,7.4,10.4,8,17.3c0.2,1.9,0.1,3.6-0.2,5.3c-0.3,2.4-1,4.8-1.9,7C418.9,276.1,417.5,278.2,416.1,280.1
				c2.5-2.3,5.1-4.4,6.8-6.3c1.8-1.8,2.9-3,2.9-3s0.3-0.3,0.8-0.8s1.3-1.3,2.1-2.3c1.6-1.9,3.9-4.5,5.9-7.1c2-2.7,4.1-5.4,5.5-7.5
				s2.3-3.5,2.3-3.5s0.9-1.4,2.3-3.5c1.2-2.2,2.9-5.2,4.5-8.1c-5.1-3.9-9.3-9.3-11.9-15.3c-0.8-1.6-1.4-3.2-1.9-4.8
				c-0.7-2.2-1-4.3-1.3-6.4c-0.3-2.1-0.3-4.2-0.1-6.2c5.7,2.7,10.7,7.1,13.7,13.3c0.8,1.6,1.3,3.3,1.8,5c1.3,4.8,0.9,9.7-0.4,14.4
				c1.4-3,2.9-6.1,4-8.4c0.9-2.3,1.6-3.9,1.6-3.9s0.6-1.6,1.6-3.9c0.9-2.4,1.9-5.6,3-8.8c1-3.2,1.8-6.5,2.4-9c0.3-1.2,0.5-2.3,0.6-3
				s0.2-1.1,0.2-1.1s0.3-1.7,0.8-4.1c0.5-2.5,0.9-5.8,1.4-9.2c-6-1.9-11.9-5.6-16.3-10.4c-1.2-1.3-2.3-2.6-3.3-4
				c-1.4-1.9-2.5-3.8-3.3-5.8c-1-2-1.7-4-2.1-6c3.2,0.4,6.3,1.3,9.2,2.6c2.9,1.4,5.8,3.2,8.1,5.7c1.3,1.3,2.4,2.7,3.3,4.2
				c0.7,1,1.3,2.1,1.8,3.2c0.5,1.1,0.9,2.2,1.3,3.4c0.7,2.3,1.3,4.7,1.3,7.1l0,0c0.5-3.3,0.6-6.7,0.9-9.2c0.1-1.3,0.1-2.3,0.2-3.1
				c0-0.7,0-1.2,0-1.2s0.1-1.7,0.2-4.2c0-0.6,0-1.3,0.1-2c0-0.7,0-1.5,0-2.3c0-1.6-0.1-3.3-0.1-5s-0.1-3.4-0.2-5s-0.2-3.1-0.3-4.3
				c-0.1-1.3-0.2-2.3-0.3-3.1c-0.1-0.7-0.1-1.2-0.1-1.2s-0.2-1.7-0.5-4.2c-0.2-2.5-0.9-5.9-1.4-9.2c-0.1-0.8-0.3-1.7-0.4-2.5
				c-0.2-0.8-0.3-1.6-0.5-2.4c-0.3-1.5-0.7-3-0.9-4.2c-0.3-1.2-0.5-2.3-0.7-3s-0.3-1.1-0.3-1.1s-0.4-1.6-1.1-4.1
				c-0.3-1.2-0.7-2.7-1.2-4.2s-1-3.1-1.5-4.7c-1-3.2-2.2-6.4-3.1-8.8c-0.4-1.2-0.8-2.2-1.1-2.9c-0.3-0.7-0.4-1.1-0.4-1.1
				s-0.7-1.6-1.7-3.9c-0.5-1.2-1.1-2.5-1.7-4c-0.7-1.4-1.5-2.9-2.2-4.5c-0.8-1.5-1.5-3.1-2.2-4.4c-0.8-1.4-1.5-2.7-2.1-3.8
				c-0.6-1.1-1.1-2-1.5-2.7c-0.4-0.6-0.6-1-0.6-1s-0.9-1.4-2.2-3.6c-0.7-1.1-1.5-2.3-2.3-3.7c-0.9-1.3-1.9-2.7-2.8-4.1
				c-1-1.4-1.9-2.8-2.9-4.1c-1-1.2-1.9-2.4-2.7-3.4c-1.6-2-2.6-3.3-2.6-3.3s-1.1-1.3-2.8-3.2c-0.8-1-1.8-2.1-2.8-3.3
				c-1.1-1.2-9.2-9.2-10.1-10c-1.9-1.7-3.1-2.8-3.1-2.8l2.7-3.1c0,0,1.3,1.2,3.2,2.9c1,0.9,2.1,1.9,3.3,3c1.2,1.1,2.4,2.4,3.6,3.6
				c1.2,1.2,2.4,2.5,3.5,3.7s2.1,2.4,2.9,3.3c1.7,2,2.8,3.3,2.8,3.3s1.1,1.4,2.7,3.4c0.8,1,1.7,2.2,2.7,3.5s1.9,2.7,2.9,4.1
				c-2-4.5-3.6-9.3-4.1-14.6c-0.2-1.8-0.3-3.7-0.3-5.7c0.2-7.3,2-14,5.5-19.5c3.5,4.6,5.6,10,6.5,15.4c0.3,2,0.4,4,0.3,6
				c-0.3,7.4-3.4,13.7-7.9,18.3c1,1.4,2,2.8,2.9,4.2s1.7,2.7,2.4,3.8c1.4,2.2,2.3,3.7,2.3,3.7s0.2,0.4,0.6,1
				c0.4,0.7,0.9,1.6,1.5,2.7s1.4,2.5,2.2,3.9c0.8,1.4,1.5,3,2.3,4.5s1.5,3.1,2.2,4.6c0.6,1.5,1.3,2.9,1.8,4.1c1,2.4,1.7,4,1.7,4
				s0.2,0.4,0.5,1.1s0.6,1.7,1.1,2.9c0.9,2.4,2.2,5.6,3.2,9c0.5,1.6,1.1,3.3,1.6,4.8s0.8,3,1.2,4.3c0.7,2.5,1.1,4.2,1.1,4.2
				s0.1,0.4,0.3,1.1c0.2,0.7,0.4,1.8,0.7,3.1c0.3,1.3,0.6,2.7,0.9,4.3c0.2,0.8,0.3,1.6,0.5,2.4c0.1,0.8,0.3,1.7,0.4,2.5l0,0
				c0-2.5,0.2-5,0.6-7.4c0.4-2.5,1.1-5,1.9-7.4c0.6-1.8,1.3-3.5,2.2-5.2c0.8-1.6,1.8-3.2,2.8-4.6s2-2.8,3.1-4
				c2.3-2.5,4.8-4.6,7.6-6.3c0.4,2.8,0.7,5.5,0.5,8.3s-0.7,5.5-1.5,8.1c-0.5,1.9-1.4,3.7-2.3,5.5c-1.8,3.3-4,6-6.5,8.2
				s-5.4,3.8-8.4,5c0.6,3.4,1.2,6.8,1.4,9.4c0.3,2.6,0.5,4.3,0.5,4.3s0.1,0.4,0.1,1.2c0.1,0.7,0.2,1.8,0.3,3.1
				c0.1,1.3,0.2,2.8,0.3,4.4c0.1,1.6,0.2,3.3,0.2,5.1l0,0c0.4-2.5,0.8-4.9,1.6-7.3c0.8-2.4,1.8-4.8,3-7.1c0.8-1.7,1.8-3.3,2.9-4.9
				c2.2-3,4.5-5.6,7.1-7.7c2.6-2.2,5.4-3.9,8.4-5.1c0,2.8-0.1,5.6-0.7,8.3s-1.5,5.4-2.6,7.8c-0.4,0.9-0.9,1.8-1.4,2.6
				c-0.5,0.9-1.1,1.7-1.7,2.5c-4.5,6-10.3,9.5-16.7,10.9c0,1.7,0.1,3.5,0.1,5.1c0,0.8,0,1.6,0,2.3s-0.1,1.4-0.1,2.1
				c-0.1,2.6-0.2,4.3-0.2,4.3s0,0.4,0,1.2s0,1.8-0.2,3.1c-0.3,2.6-0.5,6-0.9,9.5c-0.5,3.4-0.9,6.9-1.5,9.4c-0.5,2.5-0.9,4.2-0.9,4.2
				s-0.1,0.4-0.2,1.2c-0.2,0.7-0.3,1.8-0.7,3.1c-0.7,2.5-1.5,5.9-2.5,9.2c-1.1,3.3-2.1,6.6-3,9c-1,2.4-1.6,4-1.6,4s-0.6,1.6-1.6,4
				c-1.1,2.4-2.6,5.5-4.1,8.6c-1.7,3-3.4,6.1-4.6,8.3c-1.4,2.2-2.3,3.6-2.3,3.6s-0.9,1.5-2.3,3.6c-1.5,2.2-3.6,4.9-5.6,7.7
				c-2.1,2.7-4.5,5.3-6.1,7.3c-0.8,1-1.6,1.8-2.1,2.3s-0.8,0.9-0.8,0.9s-1.2,1.2-3,3.1c-1.7,1.9-4.4,4.2-7,6.5
				c-2.5,2.4-5.3,4.4-7.4,6.1c-2,1.6-3.4,2.7-3.4,2.7l-2.4-3.3c0,0,1.3-1,3.3-2.6C410.9,284.4,413.6,282.4,416.1,280.1z"/>
			<path id="XMLID_00000003825457212051075680000006764228695740215728_" class="st0" d="M447,256.5c1.1-0.6,2.3-1.2,3.5-1.8
				c1.7-0.8,3.5-1.4,5.4-2c6.9-2.2,14-2.6,20.3-1c-3.5,4.7-7.7,8.7-12.9,11.2c-1.8,0.9-3.7,1.7-5.6,2.2c-7.4,2-14.2,0.9-19.9-2
				c1.8-1.7,3.8-3.3,5.9-4.6C444.8,257.8,445.9,257.1,447,256.5z"/>
			<path id="XMLID_00000152971045169426619920000016387679945157351096_" class="st0" d="M424.8,238.3c-0.4-4.4-0.3-8.7,0.9-12.5
				c5.1,3.7,9.2,8.9,11.1,15.5c0.4,1.7,0.7,3.4,0.8,5.2c0.1,1.2,0.1,2.4,0,3.6c-0.1,1.2-0.2,2.4-0.5,3.6c-0.6,2.3-1.4,4.6-2.5,6.8
				c-4.3-4.8-7.3-10.9-8.8-17.2C425.3,241.6,425,240,424.8,238.3z"/>
			<path id="XMLID_00000036236658381194717090000007960324893581607861_" class="st0" d="M452.7,239.7c2.8-4,6.7-7.5,10.8-10.6
				c1.5-1.1,3.2-2.1,4.9-3c6.4-3.4,13.2-5,19.7-4.6c-1.3,2.6-2.8,5.1-4.5,7.3c-1.7,2.3-3.9,4.2-6,5.9c-1.6,1.2-3.3,2.3-5,3.2
				C465.7,241.3,458.9,241.6,452.7,239.7z"/>
			<path id="XMLID_00000160876714157014908900000014932889944197352118_" class="st0" d="M469.3,204.6c0.8-1,1.7-1.9,2.6-2.9
				c1.3-1.3,2.8-2.6,4.3-3.8c5.8-4.4,12.2-7.2,18.7-7.7c-0.8,2.7-1.9,5.4-3.2,7.9c-1.3,2.5-3.1,4.7-4.9,6.8c-1.4,1.5-2.8,2.8-4.4,4
				c-6.2,4.4-12.8,5.9-19.3,5.2c1.1-2.2,2.3-4.4,3.8-6.4C467.6,206.6,468.5,205.6,469.3,204.6z"/>
			<path id="XMLID_00000089550054211018035110000008445834148701387435_" class="st0" d="M444.7,199.9c-1-1.4-1.9-2.9-2.6-4.4
				c-1.1-2.1-1.8-4.1-2.4-6.2c-0.6-2.1-1-4.1-1.1-6.2c6.1,1.8,11.8,5.3,15.8,10.8c1,1.5,1.9,3,2.6,4.6c0.5,1.1,0.9,2.3,1.3,3.4
				c0.3,1.2,0.5,2.3,0.7,3.5c0.3,2.4,0.4,4.9,0.1,7.2C453.5,209.9,448.3,205.3,444.7,199.9z"/>
			<path id="XMLID_00000024688565938165619140000006052145674382040498_" class="st0" d="M490.7,174.1c-1.1,1.7-2.3,3.2-3.7,4.6
				c-5.4,5.3-11.6,7.9-18.2,8.2c0.8-2.4,1.6-4.7,2.7-7c0.6-1.1,1.2-2.2,1.9-3.3c0.7-1.1,1.3-2.2,2.1-3.2c1.1-1.5,2.3-3,3.6-4.4
				c2.6-2.6,5.2-4.9,8.1-6.6c2.9-1.8,6-3.1,9.1-3.9c-0.4,2.8-1,5.6-1.9,8.2C493.5,169.4,492.2,171.8,490.7,174.1z"/>
			<path id="XMLID_00000103238050387970879850000016104749040385822082_" class="st0" d="M446.2,149.9c-0.7-0.6-1.3-1.2-1.9-1.8
				c-1.6-1.7-3-3.4-4.2-5.3c-1.2-1.8-2.2-3.7-3-5.7c3.2-0.1,6.4,0.3,9.5,1.3c3.1,0.9,6.2,2.4,8.8,4.5c1.4,1.1,2.7,2.3,3.9,3.6
				c1.7,1.8,3,3.9,4,6.1c1,2.2,2,4.5,2.4,6.9c-6.3-1-12.6-3.7-17.7-7.9C447.5,151,446.9,150.5,446.2,149.9z"/>
			<path id="XMLID_00000068651696957260929420000008300068642217141670_" class="st0" d="M444.5,127.3c-1.5-0.9-2.9-1.9-4.3-2.9
				c-1.9-1.4-3.5-3-4.9-4.6c-1.4-1.7-2.7-3.4-3.7-5.2c3.2-0.5,6.4-0.6,9.6-0.1c1.6,0.2,3.2,0.6,4.8,1.1c1.5,0.5,3.1,1.2,4.6,2
				c1.6,0.9,3.1,1.9,4.4,3c2,1.6,3.5,3.4,4.9,5.4c1.4,2,2.6,4.2,3.3,6.4c-3.2,0-6.4-0.5-9.6-1.4C450.4,130.3,447.3,129,444.5,127.3z
				"/>
			<path id="XMLID_00000154419751633335945100000004947180879686262436_" class="st0" d="M459.9,97.6c0-2.5,0.4-5.1,0.9-7.6
				c0.3-1.8,0.8-3.6,1.4-5.5c2.4-6.9,6.2-12.6,11.3-16.7c1.8,5.3,2.2,11.1,1.4,16.4c-0.3,1.9-0.9,3.9-1.5,5.7
				c-1.3,3.5-3.1,6.5-5.3,9c-2.2,2.5-4.8,4.6-7.7,6.1c-0.2-1.2-0.3-2.5-0.4-3.7C460,100.1,459.9,98.9,459.9,97.6z"/>
			<path id="XMLID_00000134962280240546147230000006511014124476696237_" class="st0" d="M448.4,72.2c-0.3-2.5-0.4-5.1-0.2-7.7
				c0.1-1.9,0.3-3.7,0.6-5.6c1.4-7.2,4.2-13.5,8.6-18.2c2.6,5,3.8,10.7,3.9,16.1c0,2-0.3,4-0.7,5.9c-0.8,3.7-2.1,6.9-3.9,9.7
				c-1.9,2.8-4.1,5.2-6.7,7.1c-0.4-1.2-0.7-2.4-0.9-3.6C448.8,74.7,448.5,73.5,448.4,72.2z"/>
			<path id="XMLID_00000089545966281284434810000016188370452219272620_" class="st0" d="M441.9,93.4c1.7,0.7,3.3,1.4,4.8,2.4
				c2.1,1.3,3.9,2.9,5.6,4.7c0.8,0.9,1.6,1.8,2.3,2.8c0.7,1,1.3,2,1.9,3.1c-3.2,0.4-6.4,0.4-9.6,0s-6.5-1.3-9.6-2.5
				c-1.7-0.7-3.1-1.5-4.6-2.3c-4.1-2.3-7.3-5.2-9.9-8.5C428.8,91.2,435.6,90.9,441.9,93.4z"/>
			<path id="XMLID_00000165195421644801742890000006480345353663380129_" class="st0" d="M413.4,61.3c-1.8-0.1-3.4-0.4-5-0.8
				c-4.6-0.8-8.4-2.7-11.9-4.8c5.2-3.7,11.5-6.1,18.3-5.6c1.8,0.1,3.6,0.4,5.3,0.8c4.6,1.3,9.1,3.8,12.4,7.3
				C426.6,60.8,420,61.8,413.4,61.3z"/>
			<path id="XMLID_00000119797552695030955320000012524140683621964478_" class="st0" d="M410.9,73.2c5.7-2.8,12.4-4.1,19-2.6
				c1.8,0.4,3.5,0.9,5.1,1.6c2.2,1,4.3,2.3,6.2,3.8c0.9,0.8,1.9,1.6,2.7,2.5c0.8,0.9,1.6,1.8,2.3,2.8c-3.1,0.9-6.3,1.3-9.6,1.4
				c-3.2,0-6.6-0.3-9.8-1.1c-1.7-0.4-3.3-1-4.9-1.6C417.5,78.4,414,76,410.9,73.2z"/>
		</g>
		<path id="XMLID_00000054243385228917619430000003567262512643466649_" class="st0" d="M401,29.6c-1.5-1.5-2.9-3-4.1-4.6
			c-3.7-4.3-5.9-8.9-7.4-13.6c7.7,0.5,15.4,3.1,21.5,8.7c1.6,1.5,3.1,3.1,4.4,4.8c3.3,4.8,5.7,10.5,6.1,16.3
			C413.9,39.2,406.9,35.2,401,29.6z"/>
	</g>
	<g id="XMLID_00000106123623492359969480000009328700089925655950_">
		<g id="XMLID_00000119833206554274704780000012034987741313878458_">
			<path id="XMLID_00000085971155887731613080000018352812445795128754_" class="st0" d="M86.6,287.8c3.2-1,6.1-2.6,8.6-4.6
				c-2.1-1.3-4.4-2.4-6.7-3.4c-2.3-1-4.7-1.8-7.3-2.4c-1.8-0.4-3.8-0.7-5.7-1c-7.2-0.9-14.3,0.2-20.1,2.9c2.1,2.1,4.5,3.7,6.9,5.2
				c1.2,0.7,2.5,1.4,3.8,2s2.7,1,4,1.4c2,0.5,4,0.9,5.9,1.1C79.8,289.3,83.4,288.8,86.6,287.8z"/>
			<path id="XMLID_00000173153979346480775030000014983941102346858943_" class="st0" d="M97.9,280.1c1.7-2.8,2.9-5.8,3.8-8.9
				s1.4-6.3,1.6-9.7c0.1-1.8,0.1-3.5-0.1-5.1c-0.1-1.1-0.3-2.2-0.4-3.3s-0.4-2.1-0.6-3.2c-0.5-2.1-1.3-3.9-2.1-5.7
				c-4.5,4.7-7.4,10.4-8,17.3c-0.2,1.9-0.1,3.6,0.2,5.3c0.3,2.4,1,4.8,1.9,7C95.1,276.1,96.5,278.2,97.9,280.1
				c-2.5-2.3-5.1-4.4-6.8-6.3c-1.8-1.8-2.9-3-2.9-3s-0.3-0.3-0.8-0.8s-1.3-1.3-2.1-2.3c-1.6-1.9-3.9-4.5-5.9-7.1
				c-2-2.7-4.1-5.4-5.5-7.5s-2.3-3.5-2.3-3.5s-0.9-1.4-2.3-3.5c-1.2-2.2-2.9-5.2-4.5-8.1c5.1-3.9,9.3-9.3,11.9-15.3
				c0.8-1.6,1.4-3.2,1.9-4.8c0.7-2.2,1-4.3,1.3-6.4c0.3-2.1,0.3-4.2,0.1-6.2c-5.7,2.7-10.7,7.1-13.7,13.3c-0.8,1.6-1.3,3.3-1.8,5
				c-1.3,4.8-0.9,9.7,0.4,14.4c-1.4-3-2.9-6.1-4-8.4c-0.9-2.3-1.6-3.9-1.6-3.9s-0.6-1.6-1.6-3.9c-0.9-2.4-1.9-5.6-3-8.8
				c-1-3.2-1.8-6.5-2.4-9c-0.3-1.2-0.5-2.3-0.6-3s-0.2-1.1-0.2-1.1s-0.3-1.7-0.8-4.1c-0.5-2.5-0.9-5.8-1.4-9.2
				c6-1.9,11.9-5.6,16.3-10.4c1.2-1.3,2.3-2.6,3.3-4c1.4-1.9,2.5-3.8,3.3-5.8c1-2,1.7-4,2.1-6c-3.2,0.4-6.3,1.3-9.2,2.6
				c-2.9,1.4-5.8,3.2-8.1,5.7c-1.3,1.3-2.4,2.7-3.3,4.2c-0.7,1-1.3,2.1-1.8,3.2c-0.5,1.1-0.9,2.2-1.3,3.4c-0.7,2.3-1.3,4.7-1.3,7.1
				l0,0c-0.5-3.3-0.6-6.7-0.9-9.2c-0.1-1.3-0.1-2.3-0.2-3.1c0-0.7,0-1.2,0-1.2s-0.1-1.7-0.2-4.2c0-0.6,0-1.3-0.1-2
				c0-0.7,0-1.5,0-2.3c0-1.6,0.1-3.3,0.1-5s0.1-3.4,0.2-5c0.1-1.6,0.2-3.1,0.3-4.3c0.1-1.3,0.2-2.3,0.3-3.1c0.1-0.7,0.1-1.2,0.1-1.2
				s0.2-1.7,0.5-4.2c0.2-2.5,0.9-5.9,1.4-9.2c0.1-0.8,0.3-1.7,0.4-2.5c0.2-0.8,0.3-1.6,0.5-2.4c0.3-1.5,0.7-3,0.9-4.2
				c0.3-1.2,0.5-2.3,0.7-3s0.3-1.1,0.3-1.1s0.4-1.6,1.1-4.1c0.3-1.2,0.7-2.7,1.2-4.2s1-3.1,1.5-4.7c1-3.2,2.2-6.4,3.1-8.8
				c0.4-1.2,0.8-2.2,1.1-2.9c0.3-0.7,0.4-1.1,0.4-1.1s0.7-1.6,1.7-3.9c0.5-1.2,1.1-2.5,1.7-4c0.7-1.4,1.5-2.9,2.2-4.5
				c0.8-1.5,1.5-3.1,2.2-4.4c0.8-1.4,1.5-2.7,2.1-3.8c0.6-1.1,1.1-2,1.5-2.7c0.4-0.6,0.6-1,0.6-1s0.9-1.4,2.2-3.6
				c0.7-1.1,1.5-2.3,2.3-3.7c0.9-1.3,1.9-2.7,2.8-4.1c1-1.4,1.9-2.8,2.9-4.1c1-1.2,1.9-2.4,2.7-3.4c1.6-2,2.6-3.3,2.6-3.3
				s1.1-1.3,2.8-3.2c0.8-1,1.8-2.1,2.8-3.3c1.1-1.2,9.2-9.2,10.1-10c1.9-1.7,3.1-2.8,3.1-2.8l-2.7-3.1c0,0-1.3,1.2-3.2,2.9
				c-1,0.9-2.1,1.9-3.3,3c-1.2,1.1-2.4,2.4-3.6,3.6c-1.2,1.2-2.4,2.5-3.5,3.7s-2.1,2.4-2.9,3.3c-1.7,2-2.8,3.3-2.8,3.3
				s-1.1,1.4-2.7,3.4c-0.8,1-1.7,2.2-2.7,3.5S79,54.1,78,55.5c2-4.5,3.6-9.3,4.1-14.6c0.2-1.8,0.3-3.7,0.3-5.7
				c-0.2-7.3-2-14-5.5-19.5c-3.5,4.6-5.6,10-6.5,15.4c-0.3,2-0.4,4-0.3,6c0.3,7.4,3.4,13.7,7.9,18.3c-1,1.4-2,2.8-2.9,4.2
				s-1.7,2.7-2.4,3.8c-1.4,2.2-2.3,3.7-2.3,3.7s-0.2,0.4-0.6,1c-0.4,0.7-0.9,1.6-1.5,2.7s-1.4,2.5-2.2,3.9c-0.8,1.4-1.5,3-2.3,4.5
				c-0.8,1.5-1.5,3.1-2.2,4.6c-0.6,1.5-1.3,2.9-1.8,4.1c-1,2.4-1.7,4-1.7,4s-0.2,0.4-0.5,1.1s-0.6,1.7-1.1,2.9
				c-0.9,2.4-2.2,5.6-3.2,9c-0.5,1.6-1.1,3.3-1.6,4.8s-0.8,3-1.2,4.3c-0.7,2.5-1.1,4.2-1.1,4.2s-0.1,0.4-0.3,1.1s-0.4,1.8-0.7,3.1
				c-0.3,1.3-0.6,2.7-0.9,4.3c-0.2,0.8-0.3,1.6-0.5,2.4c-0.1,0.8-0.3,1.7-0.4,2.5l0,0c0-2.5-0.2-5-0.6-7.4c-0.4-2.5-1.1-5-1.9-7.4
				c-0.6-1.8-1.3-3.5-2.2-5.2c-0.8-1.6-1.8-3.2-2.8-4.6s-2-2.8-3.1-4c-2.3-2.5-4.8-4.6-7.6-6.3c-0.4,2.8-0.7,5.5-0.5,8.3
				s0.7,5.5,1.5,8.1c0.5,1.9,1.4,3.7,2.3,5.5c1.8,3.3,4,6,6.5,8.2s5.4,3.8,8.4,5c-0.6,3.4-1.2,6.8-1.4,9.4c-0.3,2.6-0.5,4.3-0.5,4.3
				s-0.1,0.4-0.1,1.2c-0.1,0.7-0.2,1.8-0.3,3.1s-0.2,2.8-0.3,4.4c-0.1,1.6-0.2,3.3-0.2,5.1l0,0c-0.4-2.5-0.8-4.9-1.6-7.3
				c-0.8-2.4-1.8-4.8-3-7.1c-0.8-1.7-1.8-3.3-2.9-4.9c-2.2-3-4.5-5.6-7.1-7.7c-2.6-2.2-5.4-3.9-8.4-5.1c0,2.8,0.1,5.6,0.7,8.3
				s1.5,5.4,2.6,7.8c0.4,0.9,0.9,1.8,1.4,2.6c0.5,0.9,1.1,1.7,1.7,2.5c4.5,6,10.3,9.5,16.7,10.9c0,1.7-0.1,3.5-0.1,5.1
				c0,0.8,0,1.6,0,2.3s0.1,1.4,0.1,2.1c0.1,2.6,0.2,4.3,0.2,4.3s0,0.4,0,1.2s0,1.8,0.2,3.1c0.3,2.6,0.5,6,0.9,9.5
				c0.5,3.4,0.9,6.9,1.5,9.4c0.5,2.5,0.9,4.2,0.9,4.2s0.1,0.4,0.2,1.2c0.2,0.7,0.3,1.8,0.7,3.1c0.7,2.5,1.5,5.9,2.5,9.2
				c1.1,3.3,2.1,6.6,3,9c1,2.4,1.6,4,1.6,4s0.6,1.6,1.6,4c1.1,2.4,2.6,5.5,4.1,8.6c1.7,3,3.4,6.1,4.6,8.3c1.4,2.2,2.3,3.6,2.3,3.6
				s0.9,1.5,2.3,3.6c1.5,2.2,3.6,4.9,5.6,7.7c2.1,2.7,4.5,5.3,6.1,7.3c0.8,1,1.6,1.8,2.1,2.3s0.8,0.9,0.8,0.9s1.2,1.2,3,3.1
				c1.7,1.9,4.4,4.2,7,6.5c2.5,2.4,5.3,4.4,7.4,6.1c2,1.6,3.4,2.7,3.4,2.7l2.4-3.3c0,0-1.3-1-3.3-2.6
				C103.1,284.4,100.4,282.4,97.9,280.1z"/>
			<path id="XMLID_00000033345241891690062230000016247811793925330101_" class="st0" d="M67,256.5c-1.1-0.6-2.3-1.2-3.5-1.8
				c-1.7-0.8-3.5-1.4-5.4-2c-6.9-2.2-14-2.6-20.3-1c3.5,4.7,7.7,8.7,12.9,11.2c1.8,0.9,3.7,1.7,5.6,2.2c7.4,2,14.2,0.9,19.9-2
				c-1.8-1.7-3.8-3.3-5.9-4.6C69.2,257.8,68.1,257.1,67,256.5z"/>
			<path id="XMLID_00000107589427083147075660000015405492161753099700_" class="st0" d="M89.2,238.3c0.4-4.4,0.3-8.7-0.9-12.5
				c-5.1,3.7-9.2,8.9-11.1,15.5c-0.4,1.7-0.7,3.4-0.8,5.2c-0.1,1.2-0.1,2.4,0,3.6c0.1,1.2,0.2,2.4,0.5,3.6c0.6,2.3,1.4,4.6,2.5,6.8
				c4.3-4.8,7.3-10.9,8.8-17.2C88.7,241.6,89,240,89.2,238.3z"/>
			<path id="XMLID_00000070819325892459740440000002835910823372038551_" class="st0" d="M61.3,239.7c-2.8-4-6.7-7.5-10.8-10.6
				c-1.5-1.1-3.2-2.1-4.9-3c-6.4-3.4-13.2-5-19.7-4.6c1.3,2.6,2.8,5.1,4.5,7.3c1.7,2.3,3.9,4.2,6,5.9c1.6,1.2,3.3,2.3,5,3.2
				C48.3,241.3,55.1,241.6,61.3,239.7z"/>
			<path id="XMLID_00000114044295055240281450000001474311420756915856_" class="st0" d="M44.7,204.6c-0.8-1-1.7-1.9-2.6-2.9
				c-1.3-1.3-2.8-2.6-4.3-3.8c-5.8-4.4-12.2-7.2-18.7-7.7c0.8,2.7,1.9,5.4,3.2,7.9c1.3,2.5,3.1,4.7,4.9,6.8c1.4,1.5,2.8,2.8,4.4,4
				c6.2,4.4,12.8,5.9,19.3,5.2c-1.1-2.2-2.3-4.4-3.8-6.4C46.4,206.6,45.5,205.6,44.7,204.6z"/>
			<path id="XMLID_00000011033059723685692480000015929706255682394791_" class="st0" d="M69.3,199.9c1-1.4,1.9-2.9,2.6-4.4
				c1.1-2.1,1.8-4.1,2.4-6.2c0.6-2.1,1-4.1,1.1-6.2c-6.1,1.8-11.8,5.3-15.8,10.8c-1,1.5-1.9,3-2.6,4.6c-0.5,1.1-0.9,2.3-1.3,3.4
				c-0.3,1.2-0.5,2.3-0.7,3.5c-0.3,2.4-0.4,4.9-0.1,7.2C60.5,209.9,65.7,205.3,69.3,199.9z"/>
			<path id="XMLID_00000124136864220079743400000010614041083120849064_" class="st0" d="M23.3,174.1c1.1,1.7,2.3,3.2,3.7,4.6
				c5.4,5.3,11.6,7.9,18.2,8.2c-0.8-2.4-1.6-4.7-2.7-7c-0.6-1.1-1.2-2.2-1.9-3.3s-1.3-2.2-2.1-3.2c-1.1-1.5-2.3-3-3.6-4.4
				c-2.6-2.6-5.2-4.9-8.1-6.6c-2.9-1.8-6-3.1-9.1-3.9c0.4,2.8,1,5.6,1.9,8.2C20.5,169.4,21.8,171.8,23.3,174.1z"/>
			<path id="XMLID_00000034051480501752045940000000138518036111218849_" class="st0" d="M67.8,149.9c0.7-0.6,1.3-1.2,1.9-1.8
				c1.6-1.7,3-3.4,4.2-5.3c1.2-1.8,2.2-3.7,3-5.7c-3.2-0.1-6.4,0.3-9.5,1.3c-3.1,0.9-6.2,2.4-8.8,4.5c-1.4,1.1-2.7,2.3-3.9,3.6
				c-1.7,1.8-3,3.9-4,6.1c-1,2.2-2,4.5-2.4,6.9c6.3-1,12.6-3.7,17.7-7.9C66.5,151,67.1,150.5,67.8,149.9z"/>
			<path id="XMLID_00000035531557528559796750000000384671303888987559_" class="st0" d="M69.5,127.3c1.5-0.9,2.9-1.9,4.3-2.9
				c1.9-1.4,3.5-3,4.9-4.6c1.4-1.7,2.7-3.4,3.7-5.2c-3.2-0.5-6.4-0.6-9.6-0.1c-1.6,0.2-3.2,0.6-4.8,1.1c-1.5,0.5-3.1,1.2-4.6,2
				c-1.6,0.9-3.1,1.9-4.4,3c-2,1.6-3.5,3.4-4.9,5.4c-1.4,2-2.6,4.2-3.3,6.4c3.2,0,6.4-0.5,9.6-1.4C63.6,130.3,66.7,129,69.5,127.3z"
				/>
			<path id="XMLID_00000039117492174112482680000013469309791272754854_" class="st0" d="M54.1,97.6c0-2.5-0.4-5.1-0.9-7.6
				c-0.3-1.8-0.8-3.6-1.4-5.5c-2.4-6.9-6.2-12.6-11.3-16.7c-1.8,5.3-2.2,11.1-1.4,16.4c0.3,1.9,0.9,3.9,1.5,5.7
				c1.3,3.5,3.1,6.5,5.3,9s4.8,4.6,7.7,6.1c0.2-1.2,0.3-2.5,0.4-3.7C54,100.1,54.1,98.9,54.1,97.6z"/>
			<path id="XMLID_00000025441833381717700720000010582477303399632033_" class="st0" d="M65.6,72.2c0.3-2.5,0.4-5.1,0.2-7.7
				c-0.1-1.9-0.3-3.7-0.6-5.6c-1.4-7.2-4.2-13.5-8.6-18.2c-2.6,5-3.8,10.7-3.9,16.1c0,2,0.3,4,0.7,5.9c0.8,3.7,2.1,6.9,3.9,9.7
				c1.9,2.8,4.1,5.2,6.7,7.1c0.4-1.2,0.7-2.4,0.9-3.6C65.2,74.7,65.5,73.5,65.6,72.2z"/>
			<path id="XMLID_00000164501695214364640340000000826745294429365931_" class="st0" d="M72.1,93.4c-1.7,0.7-3.3,1.4-4.8,2.4
				c-2.1,1.3-3.9,2.9-5.6,4.7c-0.8,0.9-1.6,1.8-2.3,2.8s-1.3,2-1.9,3.1c3.2,0.4,6.4,0.4,9.6,0c3.2-0.4,6.5-1.3,9.6-2.5
				c1.7-0.7,3.1-1.5,4.6-2.3c4.1-2.3,7.3-5.2,9.9-8.5C85.2,91.2,78.4,90.9,72.1,93.4z"/>
			<path id="XMLID_00000038402706688602137370000009996135689570128570_" class="st0" d="M100.6,61.3c1.8-0.1,3.4-0.4,5-0.8
				c4.6-0.8,8.4-2.7,11.9-4.8c-5.2-3.7-11.5-6.1-18.3-5.6c-1.8,0.1-3.6,0.4-5.3,0.8c-4.6,1.3-9.1,3.8-12.4,7.3
				C87.4,60.8,94,61.8,100.6,61.3z"/>
			<path id="XMLID_00000080919673879948996820000011889531946704834192_" class="st0" d="M103.1,73.2c-5.7-2.8-12.4-4.1-19-2.6
				c-1.8,0.4-3.5,0.9-5.1,1.6c-2.2,1-4.3,2.3-6.2,3.8c-0.9,0.8-1.9,1.6-2.7,2.5c-0.8,0.9-1.6,1.8-2.3,2.8c3.1,0.9,6.3,1.3,9.6,1.4
				c3.2,0,6.6-0.3,9.8-1.1c1.7-0.4,3.3-1,4.9-1.6C96.5,78.4,100,76,103.1,73.2z"/>
		</g>
		<path id="XMLID_00000044168760853841230360000011188206746952541585_" class="st0" d="M113,29.6c1.5-1.5,2.9-3,4.1-4.6
			c3.7-4.3,5.9-8.9,7.4-13.6c-7.7,0.5-15.4,3.1-21.5,8.7c-1.6,1.5-3.1,3.1-4.4,4.8c-3.3,4.8-5.7,10.5-6.1,16.3
			C100.1,39.2,107.1,35.2,113,29.6z"/>
	</g>
	<g>
		<g>
			<path class="st0" d="M151.9,160.6h8.8l6.1,13.4l6.1-13.4h8.8L170.7,182v10.6h-7.8V182L151.9,160.6z"/>
			<path class="st0" d="M204.6,166.7h-11.8v6.5h10.5v6h-10.5v7h11.8v6.3h-19.5v-31.9h19.5V166.7z"/>
			<path class="st0" d="M229.6,186.9h-11.9l-1.9,5.7h-8.2l11.6-31.9h9l11.6,31.9h-8.2L229.6,186.9z M223.5,169.1l-4,11.7h7.8
				L223.5,169.1z"/>
			<path class="st0" d="M256.3,160.6c7.8,0,11.8,4.5,11.8,10.1c0,4-2.2,7.8-7.1,9.3l7.4,12.7h-8.8l-6.6-12.1h-1.8v12.1h-7.8v-31.9
				h13V160.6z M255.8,167H251v8h4.8c2.9,0,4.3-1.4,4.3-4C260.1,168.5,258.7,167,255.8,167z"/>
			<path class="st0" d="M284.4,192.9c-6.9,0-12.3-3.4-12.5-9.9h8.3c0.2,2.4,1.8,3.6,4,3.6c2.3,0,3.7-1.1,3.7-3
				c0-5.9-16-2.8-15.9-14.1c0-6,4.9-9.4,11.7-9.4c7,0,11.7,3.5,11.9,9.5h-8.4c-0.1-2-1.6-3.3-3.7-3.4c-1.8,0-3.3,1-3.3,2.9
				c0,5.5,15.8,3,15.8,13.7C296.1,188.4,291.9,192.9,284.4,192.9z"/>
			<path class="st0" d="M325.6,192.9c-9,0-16.4-6.8-16.4-16.4c0-9.6,7.4-16.4,16.4-16.4c9.2,0,16.4,6.8,16.4,16.4
				C342,186.1,334.8,192.9,325.6,192.9z M325.6,185.8c5.1,0,8.4-3.7,8.4-9.3c0-5.7-3.4-9.3-8.4-9.3c-5.2,0-8.4,3.6-8.4,9.3
				C317.2,182,320.4,185.8,325.6,185.8z"/>
			<path class="st0" d="M346.4,160.6h20.9v6.3h-13v6.8h9.8v6h-9.8v12.9h-7.8V160.6z"/>
		</g>
	</g>
	<g>
		<path class="st0" d="M144,215h-11.8v6.5h10.5v6h-10.5v7H144v6.3h-19.5v-31.9H144V215z"/>
		<path class="st0" d="M162.2,231l-5.8,9.8h-8.8l10.2-16.3l-10.5-15.7h9l6.4,9.6l5.7-9.6h8.8L167.1,225l10.6,15.9h-9L162.2,231z"/>
		<path class="st0" d="M196.4,208.4c7.6,0,13.4,4.3,15.2,11.2H203c-1.3-2.8-3.7-4.1-6.8-4.1c-4.8,0-8.1,3.5-8.1,9.2s3.3,9.2,8.1,9.2
			c3,0,5.4-1.3,6.8-4.1h8.6c-1.8,6.9-7.6,11.2-15.2,11.2c-9.4,0-16-6.8-16-16.3C180.4,215.2,187,208.4,196.4,208.4z"/>
		<path class="st0" d="M235.9,215h-11.8v6.5h10.5v6h-10.5v7h11.8v6.3h-19.5v-31.9h19.5V215z"/>
		<path class="st0" d="M248.8,208.8v25.9h10.2v6h-18v-31.9H248.8z"/>
		<path class="st0" d="M270.5,208.8v25.9h10.2v6h-18v-31.9H270.5z"/>
		<path class="st0" d="M304.1,215h-11.8v6.5h10.5v6h-10.5v7h11.8v6.3h-19.5v-31.9h19.5V215z"/>
		<path class="st0" d="M337.7,208.8v31.9h-7.8l-13-19.8v19.8H309v-31.9h7.8l13,19.8v-19.8H337.7z"/>
		<path class="st0" d="M358.2,208.4c7.6,0,13.4,4.3,15.2,11.2h-8.6c-1.3-2.8-3.7-4.1-6.8-4.1c-4.8,0-8.1,3.5-8.1,9.2
			s3.3,9.2,8.1,9.2c3,0,5.4-1.3,6.8-4.1h8.6c-1.8,6.9-7.6,11.2-15.2,11.2c-9.4,0-16-6.8-16-16.3
			C342.1,215.2,348.7,208.4,358.2,208.4z"/>
		<path class="st0" d="M397.7,215h-11.8v6.5h10.5v6h-10.5v7h11.8v6.3h-19.7v-31.9h19.5v6.1H397.7z"/>
	</g>
	<g>
		<path class="st0" d="M361.7,104.4h-13.4v13.5h-6v-13.5h-13.5v-5.9h13.5V84.9h6v13.6h13.4V104.4z"/>
	</g>
	<g>
		<path class="st0" d="M205.5,75.3c-2.5,1.8-5.3,4.6-8.4,8.5l-12.9-10.4c2.1-2.8,4.1-5.3,6.3-7.4c2.1-2.2,4.4-4,6.8-5.5
			c2.4-1.5,5.1-2.6,8-3.4c2.9-0.8,6.3-1.1,10-1.1c4.4,0,8.4,0.6,12,1.8c3.5,1.2,6.6,3,9.1,5.2c2.5,2.3,4.4,5,5.7,8.2
			c1.3,3.2,2,6.7,2,10.6c0,3.5-0.5,6.6-1.4,9.3c-0.9,2.7-2.3,5.3-4,7.8c-1.8,2.5-4.1,4.9-6.8,7.3c-2.8,2.4-6,5.1-9.6,7.9l-13.6,10.5
			h36.3v15.8h-61.7v-14.5l27.7-22.7c2.6-2.1,4.8-4.1,6.7-5.8c1.8-1.7,3.3-3.3,4.5-4.9c1.1-1.5,2-3.1,2.5-4.5
			c0.5-1.5,0.8-3.1,0.8-4.8c0-3.6-1-6.3-3.1-8.1c-2.1-1.8-4.8-2.7-8.1-2.7C210.9,72.6,208,73.5,205.5,75.3z"/>
		<path class="st0" d="M264.5,57.2h51.3v16.1h-35.6l-1,14.4c1.7-0.4,3.3-0.7,5-1c1.7-0.3,3.7-0.4,6-0.4c4.1,0,8,0.5,11.5,1.5
			c3.5,1,6.6,2.6,9.3,4.8c2.6,2.1,4.7,4.9,6.2,8.3c1.5,3.4,2.3,7.4,2.3,12.2c0,4.4-0.8,8.5-2.3,12c-1.5,3.6-3.7,6.6-6.4,9.1
			c-2.8,2.5-6.1,4.4-10,5.8c-3.9,1.3-8.3,2-13.1,2c-6.7,0-12.6-1.1-17.6-3.3c-5-2.2-9.5-5.2-13.6-9.1l11.1-13.2
			c3.2,2.9,6.4,5.1,9.5,6.7c3.2,1.6,6.6,2.4,10.4,2.4c4.3,0,7.7-1,10.2-3c2.5-2,3.8-4.9,3.8-8.7c0-3.7-1.3-6.5-4-8.5
			c-2.7-2-6.3-3-10.8-3c-2.6,0-5.1,0.3-7.4,0.9c-2.3,0.6-4.5,1.3-6.5,2.2l-10.6-7L264.5,57.2z"/>
	</g>
</g>
</svg>
