<?xml version="1.0" encoding="utf-8"?>
<!-- Generator: Adobe Illustrator 25.4.1, SVG Export Plug-In . SVG Version: 6.00 Build 0)  -->
<svg version="1.1" id="Layer_1" xmlns="http://www.w3.org/2000/svg" xmlns:xlink="http://www.w3.org/1999/xlink" x="0px" y="0px"
	 viewBox="0 0 430.8 161" style="enable-background:new 0 0 430.8 161;" xml:space="preserve">
<style type="text/css">
	.st0{fill:#E62A31;}
	.st1{fill:#1C1C1C;}
</style>
<g>
	<path class="st0" d="M52.2,62.4h-4.9v7.8H35.9v-7.8H13.6V52.1l15.6-30.8h12.1L25.7,52.1h10.2V41.6h11.4v10.5h4.9
		C52.2,52.1,52.2,62.4,52.2,62.4z"/>
	<path class="st0" d="M55.7,45.8c0-15.1,7.3-25.5,20-25.5s20,10.4,20,25.5s-7.3,25.5-20,25.5S55.7,60.9,55.7,45.8z M84.4,45.8
		c0-9.5-2.9-14.6-8.8-14.6s-8.8,5.1-8.8,14.6s2.9,14.6,8.8,14.6C81.5,60.3,84.4,55.2,84.4,45.8z"/>
	<path class="st0" d="M100.5,45.8c0-15.1,7.3-25.5,20-25.5s20,10.4,20,25.5s-7.3,25.5-20,25.5S100.5,60.9,100.5,45.8z M129.2,45.8
		c0-9.5-2.9-14.6-8.8-14.6s-8.8,5.1-8.8,14.6s2.9,14.6,8.8,14.6C126.4,60.3,129.2,55.2,129.2,45.8z"/>
	<path class="st0" d="M145.4,45.8c0-15.1,7.3-25.5,20-25.5s20,10.4,20,25.5s-7.3,25.5-20,25.5C152.6,71.3,145.4,60.9,145.4,45.8z
		 M174.1,45.8c0-9.5-2.9-14.6-8.8-14.6c-5.9,0-8.8,5.1-8.8,14.6s2.9,14.6,8.8,14.6C171.2,60.3,174.1,55.2,174.1,45.8z"/>
	<path class="st0" d="M223.8,50.7h-11.2v11.2h-9.8V50.7h-11.2v-9.8h11.2V29.6h9.8v11.2h11.2V50.7z"/>
	<path class="st1" d="M26.4,132.1h20.7v9.3H16.8V92.3h30v9.3H26.4V112H45v9.1H26.4V132.1z"/>
	<path class="st1" d="M102.6,92.3v49.1H93v-31.8l-13.8,22.8h-1.1l-13.8-22.7v31.7h-9.7V92.3h10l14.1,23.2l14-23.2H102.6z"/>
	<path class="st1" d="M130.7,92.3c4.7,0,8.7,1.6,11.9,4.8c3.2,3.2,4.8,7.1,4.8,11.7s-1.6,8.5-4.8,11.7s-7.2,4.8-11.9,4.8h-8.6v16.1
		h-9.7V92.3C112.4,92.3,130.7,92.3,130.7,92.3z M130.7,116.2c2.1,0,3.8-0.7,5.1-2.1c1.4-1.4,2-3.2,2-5.3c0-2.1-0.7-3.9-2-5.3
		c-1.4-1.4-3.1-2.1-5.1-2.1h-8.6v14.9L130.7,116.2L130.7,116.2z"/>
	<path class="st1" d="M164.1,132.1h18.7v9.3h-28.4V92.3h9.7V132.1z"/>
	<path class="st1" d="M227.3,135c-5,4.9-11,7.4-18.1,7.4s-13.1-2.5-18-7.4s-7.4-11-7.4-18.1c0-7.1,2.5-13.2,7.4-18.1
		s10.9-7.4,18-7.4s13.1,2.5,18.1,7.4s7.4,11,7.4,18.1C234.7,124,232.2,130,227.3,135z M197.9,128.4c3,3,6.8,4.5,11.3,4.5
		s8.2-1.5,11.3-4.5c3-3,4.6-6.9,4.6-11.5c0-4.7-1.5-8.5-4.6-11.6c-3-3-6.8-4.6-11.3-4.6s-8.2,1.5-11.3,4.6c-3,3-4.6,6.9-4.6,11.6
		C193.4,121.5,194.9,125.4,197.9,128.4z"/>
	<path class="st1" d="M277.5,92.3l-16.8,29.9v19.1H251v-19.1l-16.7-29.9h10.9l10.6,20.4l10.7-20.4C266.5,92.3,277.5,92.3,277.5,92.3
		z"/>
	<path class="st1" d="M292.5,132.1h20.7v9.3h-30.3V92.3h30v9.3h-20.3V112h18.6v9.1h-18.6v11H292.5z"/>
	<path class="st1" d="M330.4,132.1H351v9.3h-30.3V92.3h30v9.3h-20.3V112H349v9.1h-18.6L330.4,132.1L330.4,132.1z"/>
	<path class="st1" d="M375.3,142.4c-4.9,0-8.9-1.1-12.3-3.3c-3.3-2.2-5.7-5.1-7-8.9l8.3-4.8c1.9,5,5.7,7.5,11.3,7.5
		c2.7,0,4.7-0.5,6-1.5s1.9-2.2,1.9-3.7c0-1.7-0.8-3.1-2.3-4c-1.5-1-4.3-2-8.3-3.1c-2.2-0.7-4.1-1.3-5.6-2s-3-1.5-4.6-2.6
		c-1.5-1.1-2.7-2.5-3.5-4.2s-1.2-3.6-1.2-5.9c0-4.4,1.6-8,4.7-10.6c3.2-2.6,7-4,11.4-4c4,0,7.5,1,10.5,2.9s5.4,4.6,7,8.1l-8.1,4.7
		c-2-4.2-5.1-6.3-9.4-6.3c-2,0-3.6,0.5-4.7,1.4s-1.7,2.1-1.7,3.5c0,1.5,0.6,2.8,1.9,3.7c1.3,1,3.7,2,7.4,3.1
		c1.5,0.5,2.6,0.8,3.4,1.1c0.8,0.3,1.8,0.7,3.2,1.2c1.3,0.5,2.4,1,3.1,1.5s1.6,1.1,2.5,1.9c0.9,0.8,1.6,1.6,2.1,2.5
		c0.5,0.8,0.9,1.9,1.3,3c0.4,1.2,0.5,2.5,0.5,3.9c0,4.5-1.6,8.1-4.9,10.8C384.8,141,380.6,142.4,375.3,142.4z"/>
</g>
</svg>
