<svg xmlns="http://www.w3.org/2000/svg" width="75.76" height="66.844" viewBox="0 0 75.76 66.844">
  <g id="Group_55" data-name="Group 55" transform="translate(-1242.97 -3779.935)">
    <g id="Group_53" data-name="Group 53">
      <path id="Path_16" data-name="Path 16" d="M1313.551,3779.935h-65.4a5.182,5.182,0,0,0-5.178,5.176V3841.6a5.186,5.186,0,0,0,5.178,5.182h65.4a5.186,5.186,0,0,0,5.179-5.182v-56.486A5.183,5.183,0,0,0,1313.551,3779.935Zm3.739,5.176V3841.6a3.743,3.743,0,0,1-3.739,3.739h-65.4a3.742,3.742,0,0,1-3.737-3.739v-56.486a3.739,3.739,0,0,1,3.737-3.733h65.4A3.74,3.74,0,0,1,1317.29,3785.111Z" fill="#de0022"/>
      <path id="Path_17" data-name="Path 17" d="M1297.495,3785.809a1.451,1.451,0,1,0,1.451,1.449A1.452,1.452,0,0,0,1297.495,3785.809Z" fill="#de0022"/>
      <path id="Path_18" data-name="Path 18" d="M1303.588,3785.809a1.451,1.451,0,1,0,1.452,1.449A1.449,1.449,0,0,0,1303.588,3785.809Z" fill="#de0022"/>
      <path id="Path_19" data-name="Path 19" d="M1309.566,3785.809a1.451,1.451,0,1,0,1.455,1.449A1.452,1.452,0,0,0,1309.566,3785.809Z" fill="#de0022"/>
    </g>
    <g id="Group_54" data-name="Group 54">
      <path id="Path_20" data-name="Path 20" d="M1260.12,3814.6v1.479l13.171,6.785v-1.853l-11.19-5.609v-.124l11.19-5.609v-1.853l-13.053,6.723Z" fill="#de0022"/>
      <path id="Path_21" data-name="Path 21" d="M1275.283,3824.012h1.8l7.971-20.64H1283.2Z" fill="#de0022"/>
      <path id="Path_22" data-name="Path 22" d="M1286.992,3807.814v1.853l11.275,5.609v.123l-11.155,5.55-.12.06v1.854l13.053-6.7.118-.061v-1.565Z" fill="#de0022"/>
    </g>
  </g>
</svg>