<svg xmlns="http://www.w3.org/2000/svg" width="65.652" height="65.632" viewBox="0 0 65.652 65.632">
  <path id="Path_35" data-name="Path 35" d="M1293.958,4143.738a7.392,7.392,0,0,0,10.43,0l1.561-1.561a7.374,7.374,0,0,0,.073-10.355l-.074-.073-14.062-14.061a.744.744,0,0,0-1.054,0l-3.382,3.383-.089-.088-4.325-4.326,4.419-4.415.193.043a16.207,16.207,0,0,0,15.044-4.343,16.4,16.4,0,0,0,3.808-16.906.738.738,0,0,0-.537-.476.751.751,0,0,0-.693.2l-8,7.992-6.236-2.079-.02-.06-2.058-6.176,7.992-8a.747.747,0,0,0,0-1.055.736.736,0,0,0-.279-.176,16.211,16.211,0,0,0-21.254,18.845l.042.193-4.414,4.42-14.427-14.438,0-.045-.45-4.847a.747.747,0,0,0-.435-.609l-8.592-3.9a.744.744,0,0,0-.837.149l-3.113,3.114a.747.747,0,0,0-.149.835l3.9,8.595a.745.745,0,0,0,.61.435l4.892.454.092.091,14.342,14.337-.088.089-22.178,22.175a7.4,7.4,0,0,0,0,10.429l1.558,1.557a7.4,7.4,0,0,0,10.429,0l22.271-22.259.089.088,4.325,4.325-3.383,3.384a.75.75,0,0,0,0,1.056Zm-40.66-50.576a.748.748,0,0,0-.459-.216l-4.727-.433-.03-.067-3.473-7.664,2.384-2.386.079.036,7.651,3.467.006.073.429,4.655a.736.736,0,0,0,.215.458l14.616,14.63-2.063,2.061Zm2.245,48.875a5.9,5.9,0,0,1-8.323,0l-1.558-1.558a5.9,5.9,0,0,1,0-8.325L1276.815,4101a.742.742,0,0,0,.193-.72,14.745,14.745,0,0,1,17.38-18.181l.643.139-7.457,7.467a.74.74,0,0,0-.181.763l2.342,7.028a.756.756,0,0,0,.472.471l7.027,2.341a.737.737,0,0,0,.762-.18l7.466-7.455.141.64a14.715,14.715,0,0,1-11.2,17.535,14.8,14.8,0,0,1-6.979-.158.74.74,0,0,0-.718.192Zm24.377-22.265,2.061-2.06,4.419,4.414-2.066,2.065Zm1.646,9.291,9.794-9.793.089.087,13.445,13.446a5.883,5.883,0,0,1,.1,8.212v0l-.038.043-1.63,1.626a5.9,5.9,0,0,1-8.318,0l-13.535-13.535Z" transform="translate(-1242.457 -4080.259)" fill="#de0022"/>
</svg>