<?xml version="1.0" encoding="utf-8"?>
<!-- Generator: Adobe Illustrator 26.0.1, SVG Export Plug-In . SVG Version: 6.00 Build 0)  -->
<svg version="1.1" id="Layer_1" xmlns="http://www.w3.org/2000/svg" xmlns:xlink="http://www.w3.org/1999/xlink" x="0px" y="0px"
	 viewBox="0 0 290.6 93.1" style="enable-background:new 0 0 290.6 93.1;" xml:space="preserve">
<style type="text/css">
	.st0{fill:url(#Path_2_00000122688001809281761230000008844053373058277261_);}
	.st1{clip-path:url(#SVGID_00000171696839548300440470000006916705304364098188_);}
	.st2{fill:url(#Path_3_00000142876519895224427850000000684866288635734191_);}
	.st3{fill:url(#Path_4_00000067225814098774959120000000651023345824003248_);}
	.st4{fill:url(#Ellipse_1_00000145745684705500094660000000810548578200782989_);}
	.st5{fill:url(#Path_6_00000050650681286245724610000012218082330230126742_);}
	.st6{fill:url(#Path_7_00000041285549940301710810000006706716652283781286_);}
	.st7{fill:url(#Path_8_00000062871012564665245420000011938103139899361708_);}
	.st8{fill:#DDDDDD;}
	.st9{enable-background:new    ;}
	.st10{fill:#FFFFFF;}
</style>
<g id="Group_4_1_" transform="translate(-23 -13.1)">
	<g id="Group_3_1_" transform="translate(247.202 551.706)">
		<g id="Group_1_1_" transform="translate(0 0)">
			
				<linearGradient id="Path_2_00000049928498722946215090000008350951885345036422_" gradientUnits="userSpaceOnUse" x1="-577.148" y1="-237.5287" x2="-576.705" y2="-236.7235" gradientTransform="matrix(146.8122 0 0 -80.6579 84533.0391 -19617.7812)">
				<stop  offset="0" style="stop-color:#153F93"/>
				<stop  offset="0.503" style="stop-color:#00A5D4"/>
				<stop  offset="1" style="stop-color:#4DAB51"/>
			</linearGradient>
			<path id="Path_2_1_" style="fill:url(#Path_2_00000049928498722946215090000008350951885345036422_);" d="M-142.9-520.8
				c-16.1,0-29.1,13-29.1,29.1c0,10.3-8.3,18.6-18.6,18.6s-18.6-8.3-18.6-18.6c0-10.3,8.3-18.6,18.6-18.6c0,0,0,0,0,0
				c3.8,0,6.4,1.4,7.6,1.6l4.4-9.2c-1-0.7-6.6-2.9-12-2.9c-16.1,0-29.1,13-29.1,29.1s13,29.1,29.1,29.1c9.5,0,18.5-4.7,23.9-12.5
				l0,0l0,0c1.2-1.7,2.2-3.5,3-5.5l0.1-0.1c0.7-1.6,1.2-3.2,1.5-4.9c0.3-1.3,0.6-5.8,0.6-6.1c0-10.3,8.3-18.7,18.6-18.7
				s18.7,8.3,18.7,18.6s-8.3,18.7-18.6,18.7c-7.7,0-14.7-4.7-17.5-11.9c-0.8,5.2-3.7,9.9-5.1,11.8c10.2,12.4,28.6,14.2,41,3.9
				c12.4-10.2,14.2-28.6,3.9-41C-126-516.9-134.2-520.8-142.9-520.8L-142.9-520.8z"/>
			<g>
				<defs>
					<path id="SVGID_1_" d="M-142.9-520.8c-16.1,0-29.1,13-29.1,29.1c0,10.3-8.3,18.6-18.6,18.6s-18.6-8.3-18.6-18.6
						c0-10.3,8.3-18.6,18.6-18.6c0,0,0,0,0,0c3.8,0,6.4,1.4,7.6,1.6l4.4-9.2c-1-0.7-6.6-2.9-12-2.9c-16.1,0-29.1,13-29.1,29.1
						s13,29.1,29.1,29.1c9.5,0,18.5-4.7,23.9-12.5l0,0l0,0c1.2-1.7,2.2-3.5,3-5.5l0.1-0.1c0.7-1.6,1.2-3.2,1.5-4.9
						c0.3-1.3,0.6-5.8,0.6-6.1c0-10.3,8.3-18.7,18.6-18.7s18.7,8.3,18.7,18.6s-8.3,18.7-18.6,18.7c-7.7,0-14.7-4.7-17.5-11.9
						c-0.8,5.2-3.7,9.9-5.1,11.8c10.2,12.4,28.6,14.2,41,3.9c12.4-10.2,14.2-28.6,3.9-41C-126-516.9-134.2-520.8-142.9-520.8
						L-142.9-520.8z"/>
				</defs>
				<clipPath id="SVGID_00000036943098326342987440000002289138284391438255_">
					<use xlink:href="#SVGID_1_"  style="overflow:visible;"/>
				</clipPath>
				
					<g id="Group_2_1_" transform="translate(0 0)" style="clip-path:url(#SVGID_00000036943098326342987440000002289138284391438255_);">
					
						<linearGradient id="Path_3_00000167386517146736257140000016605984601192501917_" gradientUnits="userSpaceOnUse" x1="-576.881" y1="-236.0767" x2="-576.1595" y2="-236.0767" gradientTransform="matrix(84.6654 0 0 -63.2458 48680.3164 -15430.127)">
						<stop  offset="0" style="stop-color:#E35816"/>
						<stop  offset="1" style="stop-color:#EC5C14"/>
					</linearGradient>
					<path id="Path_3_1_" style="fill:url(#Path_3_00000167386517146736257140000016605984601192501917_);" d="M-134.3-500.5
						c14.4,0,26.8,10,29.9,24.1c8.3-14.7,3.2-33.3-11.5-41.6c-14.7-8.3-33.3-3.2-41.6,11.5c-3.7,6.5-4.9,14.2-3.3,21.5
						C-155.5-494.6-145.3-500.5-134.3-500.5z"/>
					
						<linearGradient id="Path_4_00000125574964388044955850000005050275385882107069_" gradientUnits="userSpaceOnUse" x1="-576.8578" y1="-236.3421" x2="-576.1363" y2="-236.3421" gradientTransform="matrix(82.816 0 0 -68.151 47612.8242 -16589.1602)">
						<stop  offset="0" style="stop-color:#8CBD38"/>
						<stop  offset="1" style="stop-color:#E5CC00"/>
					</linearGradient>
					<path id="Path_4_1_" style="fill:url(#Path_4_00000125574964388044955850000005050275385882107069_);" d="M-127.7-479.2
						c-14.6,0-26.6-8.6-29.5-22.4c-2.5,4.5-3,7.9-3,13.4c0,16.9,12.3,30.5,29.2,30.5c16.9,0,30.5-13.7,30.5-30.5c0,0,0,0,0,0
						c0-2.2-5.7-16.5-6.1-18.6C-111.9-497.6-116.3-479.2-127.7-479.2z"/>
					
						<linearGradient id="Ellipse_1_00000087413984057472304260000005341483887921588132_" gradientUnits="userSpaceOnUse" x1="-575.9082" y1="-234.0013" x2="-575.1867" y2="-234.0013" gradientTransform="matrix(46.35 0 0 -45.072 26546.0762 -11040.6289)">
						<stop  offset="0" style="stop-color:#D45D18"/>
						<stop  offset="1" style="stop-color:#FD9400"/>
					</linearGradient>
					
						<ellipse id="Ellipse_1_1_" style="fill:url(#Ellipse_1_00000087413984057472304260000005341483887921588132_);" cx="-130.5" cy="-493.7" rx="16.7" ry="16.3"/>
				</g>
			</g>
		</g>
		
			<linearGradient id="Path_6_00000169558769025203858110000011390101514080505518_" gradientUnits="userSpaceOnUse" x1="-576.5811" y1="-219.0827" x2="-575.8595" y2="-219.0827" gradientTransform="matrix(60.026 0 0 -14.221 34485.9453 -3627.4993)">
			<stop  offset="0" style="stop-color:#782884"/>
			<stop  offset="1" style="stop-color:#C9002A"/>
		</linearGradient>
		<path id="Path_6_1_" style="fill:url(#Path_6_00000169558769025203858110000011390101514080505518_);" d="M-123.9-517.1
			c3.7,2.7,6.7,6.2,8.9,10.3h34.4v-10.3H-123.9z"/>
		
			<linearGradient id="Path_7_00000033331268487105259870000005197401724060436620_" gradientUnits="userSpaceOnUse" x1="-576.5811" y1="-217.9921" x2="-575.8595" y2="-217.9921" gradientTransform="matrix(60.026 0 0 -14.222 34485.9453 -3571.9712)">
			<stop  offset="0" style="stop-color:#782884"/>
			<stop  offset="1" style="stop-color:#C9002A"/>
		</linearGradient>
		<path id="Path_7_1_" style="fill:url(#Path_7_00000033331268487105259870000005197401724060436620_);" d="M-123.9-466.6
			c3.7-2.7,6.7-6.2,8.9-10.3h34.4v10.3L-123.9-466.6z"/>
		
			<linearGradient id="Path_8_00000052072223269772328520000011308740344994881467_" gradientUnits="userSpaceOnUse" x1="-575.4106" y1="-218.5366" x2="-574.6891" y2="-218.5366" gradientTransform="matrix(33.143 0 0 -14.221 18959.334 -3599.616)">
			<stop  offset="0" style="stop-color:#782884"/>
			<stop  offset="1" style="stop-color:#C9002A"/>
		</linearGradient>
		<path id="Path_8_1_" style="fill:url(#Path_8_00000052072223269772328520000011308740344994881467_);" d="M-111.5-496.9
			c0.6,3.4,0.6,6.9,0,10.3h23.9v-10.3H-111.5z"/>
	</g>
	<rect id="Rectangle_1_1_" x="185" y="28.3" class="st8" width="0.9" height="62"/>
	<g class="st9">
		<path class="st10" d="M204.5,52.1c-0.3-0.7-0.5-1.6-0.5-2.4c0-0.9,0.2-1.7,0.5-2.4c0.3-0.8,0.7-1.4,1.3-1.9
			c0.5-0.5,1.2-0.9,1.9-1.2c0.7-0.3,1.5-0.4,2.3-0.4c1.9,0,3.3,0.8,4.4,2.3l-1.2,0.7c-0.3-0.5-0.8-0.9-1.4-1.2
			c-0.6-0.3-1.2-0.5-1.8-0.5c-1.3,0-2.3,0.4-3.2,1.3s-1.3,2-1.3,3.4c0,0.9,0.2,1.7,0.6,2.4c0.4,0.7,0.9,1.3,1.6,1.7s1.4,0.6,2.3,0.6
			c0.6,0,1.2-0.2,1.8-0.5c0.6-0.3,1-0.7,1.4-1.2l1.2,0.7c-1.1,1.5-2.6,2.3-4.4,2.3c-0.8,0-1.6-0.1-2.3-0.4c-0.7-0.3-1.4-0.7-1.9-1.2
			C205.2,53.4,204.8,52.8,204.5,52.1z"/>
		<path class="st10" d="M216.2,55.4V43.8h7.6v1.3h-6.1v3.7h6v1.3h-6v4h6.1v1.3H216.2z"/>
		<path class="st10" d="M226,55.4V43.8h1.5l6.6,9v-9h1.4v11.5h-1.4l-6.7-9.2v9.2H226z"/>
		<path class="st10" d="M237.5,45.1v-1.3h8.8v1.3h-3.7v10.3h-1.4V45.1H237.5z"/>
		<path class="st10" d="M248.1,55.4V43.8h7.6v1.3h-6.1v3.7h6v1.3h-6v4h6.1v1.3H248.1z"/>
		<path class="st10" d="M258,55.4V43.8h4.6c1.1,0,1.9,0.3,2.6,1c0.7,0.6,1,1.5,1,2.5c0,0.5-0.1,1-0.2,1.4s-0.4,0.8-0.7,1
			c-0.3,0.3-0.6,0.5-1,0.7c-0.4,0.2-0.7,0.3-1.1,0.3l3.1,4.7h-1.7l-2.9-4.6h-2.3v4.6H258z M259.4,49.5h3c0.7,0,1.2-0.2,1.7-0.6
			c0.4-0.4,0.7-0.9,0.7-1.6c0-0.7-0.2-1.2-0.6-1.6c-0.4-0.4-1-0.6-1.7-0.6h-3V49.5z"/>
		<path class="st10" d="M273.3,52.7c-0.5-0.9-0.7-1.9-0.7-3.1c0-1.1,0.2-2.1,0.7-3.1c0.5-0.9,1.2-1.6,2-2.1s1.9-0.8,3-0.8
			s2.1,0.3,3,0.8s1.6,1.2,2,2.1c0.5,0.9,0.7,1.9,0.7,3.1c0,1.1-0.2,2.1-0.7,3.1c-0.5,0.9-1.2,1.6-2,2.1c-0.9,0.5-1.9,0.8-3,0.8
			s-2.1-0.3-3-0.8C274.4,54.3,273.7,53.6,273.3,52.7z M274,49.6c0,0.9,0.2,1.7,0.5,2.4c0.3,0.7,0.8,1.3,1.5,1.7
			c0.6,0.4,1.4,0.6,2.2,0.6c0.8,0,1.6-0.2,2.2-0.6c0.7-0.4,1.2-1,1.5-1.7c0.3-0.7,0.5-1.5,0.5-2.4c0-1.4-0.4-2.5-1.2-3.4
			c-0.8-0.9-1.8-1.3-3.1-1.3c-1.3,0-2.3,0.4-3.1,1.3C274.4,47.1,274,48.3,274,49.6z"/>
		<path class="st10" d="M286.3,55.4V43.8h7.6v1.3h-6.1v3.7h6v1.3h-6v5.3H286.3z"/>
	</g>
	<g class="st9">
		<path class="st10" d="M204.5,74.2V62.6h7.6v1.3h-6.1v3.7h6v1.3h-6v4h6.1v1.3H204.5z"/>
		<path class="st10" d="M213.2,74.2l4.5-5.9l-4.2-5.6h1.8l3.4,4.6l3.4-4.6h1.8l-4.2,5.6l4.5,5.9h-1.8l-3.7-4.9l-3.7,4.9H213.2z"/>
		<path class="st10" d="M225.6,70.8c-0.3-0.8-0.5-1.6-0.5-2.4s0.2-1.7,0.5-2.4c0.3-0.7,0.7-1.4,1.3-1.9c0.5-0.5,1.2-0.9,1.9-1.2
			c0.7-0.3,1.5-0.4,2.3-0.4c1.9,0,3.3,0.8,4.4,2.3l-1.2,0.7c-0.3-0.5-0.8-0.9-1.4-1.2c-0.6-0.3-1.2-0.5-1.8-0.5
			c-1.3,0-2.3,0.4-3.2,1.3c-0.8,0.9-1.3,2-1.3,3.4c0,0.9,0.2,1.7,0.6,2.4c0.4,0.7,0.9,1.3,1.6,1.7s1.4,0.6,2.3,0.6
			c0.6,0,1.2-0.2,1.8-0.5c0.6-0.3,1-0.7,1.4-1.2l1.2,0.7c-1.1,1.5-2.6,2.3-4.4,2.3c-0.8,0-1.6-0.1-2.3-0.4c-0.7-0.3-1.4-0.7-1.9-1.2
			C226.3,72.2,225.9,71.6,225.6,70.8z"/>
		<path class="st10" d="M237.3,74.2V62.6h7.6v1.3h-6.1v3.7h6v1.3h-6v4h6.1v1.3H237.3z"/>
		<path class="st10" d="M247,74.2V62.6h1.4v10.3h5.4v1.3H247z"/>
		<path class="st10" d="M255.5,74.2V62.6h1.4v10.3h5.4v1.3H255.5z"/>
		<path class="st10" d="M264.2,74.2V62.6h7.6v1.3h-6.1v3.7h6v1.3h-6v4h6.1v1.3H264.2z"/>
		<path class="st10" d="M274.1,74.2V62.6h1.5l6.6,9v-9h1.4v11.5h-1.4l-6.7-9.2v9.2H274.1z"/>
		<path class="st10" d="M286.3,70.8c-0.3-0.8-0.5-1.6-0.5-2.4s0.2-1.7,0.5-2.4c0.3-0.7,0.7-1.4,1.3-1.9c0.5-0.5,1.2-0.9,1.9-1.2
			c0.7-0.3,1.5-0.4,2.3-0.4c1.9,0,3.3,0.8,4.4,2.3l-1.2,0.7c-0.3-0.5-0.8-0.9-1.4-1.2c-0.6-0.3-1.2-0.5-1.8-0.5
			c-1.3,0-2.3,0.4-3.2,1.3c-0.8,0.9-1.3,2-1.3,3.4c0,0.9,0.2,1.7,0.6,2.4c0.4,0.7,0.9,1.3,1.6,1.7s1.4,0.6,2.3,0.6
			c0.6,0,1.2-0.2,1.8-0.5c0.6-0.3,1-0.7,1.4-1.2l1.2,0.7c-1.1,1.5-2.6,2.3-4.4,2.3c-0.8,0-1.6-0.1-2.3-0.4c-0.7-0.3-1.4-0.7-1.9-1.2
			C287,72.2,286.6,71.6,286.3,70.8z"/>
		<path class="st10" d="M298,74.2V62.6h7.6v1.3h-6.1v3.7h6v1.3h-6v4h6.1v1.3H298z"/>
	</g>
</g>
</svg>
