<svg xmlns="http://www.w3.org/2000/svg" width="83.1" height="78.567" viewBox="0 0 83.1 78.567">
  <path id="Path_15" data-name="Path 15" d="M543.487,3825.1h5.288a12.1,12.1,0,0,0,12.09-12.091v-1.51a12.049,12.049,0,0,0-11.376-12.016l-.71-.04v-.71a29.464,29.464,0,1,0-58.927-.075v.785l-.71.04a12.05,12.05,0,0,0-11.377,12.016v1.51a12.1,12.1,0,0,0,12.091,12.091h1.1l5.584,8.887a19.539,19.539,0,0,0,16.662,9.242h1.636l.148.559a5.293,5.293,0,1,0,0-2.637l-.148.559H513.2a17.957,17.957,0,0,1-15.369-8.59l-5.111-8.02h2.427a2.274,2.274,0,0,0,2.27-2.271v-21.15a2.273,2.273,0,0,0-2.27-2.27H491.37v-.751a27.945,27.945,0,0,1,55.891,0v.751h-3.774a2.273,2.273,0,0,0-2.27,2.27v21.15A2.274,2.274,0,0,0,543.487,3825.1Zm-23.416,13.6a3.773,3.773,0,1,1-3.773,3.772A3.776,3.776,0,0,1,520.071,3838.7Zm-24.176-37.769v22.653h-6.039a10.583,10.583,0,0,1-10.571-10.572v-1.51a10.583,10.583,0,0,1,10.571-10.571Zm46.841,0h6.039a10.583,10.583,0,0,1,10.571,10.571v1.51a10.583,10.583,0,0,1-10.571,10.572h-6.039Z" transform="translate(-477.765 -3769.198)" fill="#de0022"/>
</svg>