<svg xmlns="http://www.w3.org/2000/svg" width="75.76" height="66.844" viewBox="0 0 75.76 66.844">
  <g id="Group_57" data-name="Group 57" transform="translate(-859.92 -4080.877)">
    <g id="Group_56" data-name="Group 56">
      <path id="Path_23" data-name="Path 23" d="M930.5,4080.877H865.1a5.183,5.183,0,0,0-5.178,5.176v56.486a5.186,5.186,0,0,0,5.178,5.182h65.4a5.187,5.187,0,0,0,5.179-5.182v-56.486A5.184,5.184,0,0,0,930.5,4080.877Zm3.738,5.176v56.486a3.742,3.742,0,0,1-3.738,3.739H865.1a3.742,3.742,0,0,1-3.737-3.739v-56.486a3.739,3.739,0,0,1,3.737-3.733h65.4A3.739,3.739,0,0,1,934.239,4086.053Z" fill="#de0022"/>
      <path id="Path_24" data-name="Path 24" d="M914.445,4086.751a1.451,1.451,0,1,0,1.451,1.449A1.452,1.452,0,0,0,914.445,4086.751Z" fill="#de0022"/>
      <path id="Path_25" data-name="Path 25" d="M920.538,4086.751a1.451,1.451,0,1,0,1.452,1.449A1.449,1.449,0,0,0,920.538,4086.751Z" fill="#de0022"/>
      <path id="Path_26" data-name="Path 26" d="M926.516,4086.751a1.451,1.451,0,1,0,1.455,1.449A1.452,1.452,0,0,0,926.516,4086.751Z" fill="#de0022"/>
    </g>
    <path id="Path_27" data-name="Path 27" d="M910.675,4104.456l-17.448,19.155-8.38-7.968-1.068,1.122,9.523,9.053,18.518-20.317Z" fill="#de0022"/>
  </g>
</svg>