<?xml version="1.0" encoding="utf-8"?>
<!-- Generator: Adobe Illustrator 24.0.1, SVG Export Plug-In . SVG Version: 6.00 Build 0)  -->
<svg version="1.1" id="Layer_1" xmlns="http://www.w3.org/2000/svg" xmlns:xlink="http://www.w3.org/1999/xlink" x="0px" y="0px"
	 viewBox="0 0 158 77" style="enable-background:new 0 0 158 77;" xml:space="preserve">
<style type="text/css">
	.st0{fill:#6C6C6C;}
</style>
<path class="st0" d="M144,29.3c0-2.4-0.4-4.8-1-7.2c-4.2-15.1-20-24-35.1-19.8c-7.3,2-13.3,6.6-17.1,13L80,31.9l-17.3-8.5
	c-6.5-3.7-14.4-4.7-21.6-2.7l-0.2,0c-7.3,2-13.6,6.9-17.3,13.4c-3.7,6.5-4.7,14.4-2.7,21.6C23,63.1,27.8,69.2,34.5,73
	c4.3,2.4,9.1,3.7,13.9,3.7c2.6,0,5.2-0.4,7.8-1.1c7.1-2,13.1-6.6,16.8-13L83.9,46l17.4,8.6c13.7,7.7,31.1,2.8,38.9-10.8
	c2.2-3.8,3.5-8.2,3.7-12.5L144,29.3z M120,46.7c-4.5,1.2-9.3,0.6-13.4-1.7l-16.7-8.2l10.1-15.6l0.1-0.2c2.4-4.1,6.2-7,10.7-8.2
	c4.6-1.2,9.3-0.6,13.4,1.8c3.9,2.2,6.7,5.8,8,10.1l0.1,0.4C135,34.4,129.4,44.1,120,46.7z M39.8,63.3c-4.1-2.4-7-6.1-8.2-10.7
	c-1.2-4.5-0.6-9.3,1.8-13.3c3.3-5.6,9.2-8.7,15.2-8.7c3,0,6,0.8,8.8,2.4l16.7,8.2L63.9,56.7l-0.1,0.2c-2.4,4.1-6.1,7-10.7,8.2
	C48.6,66.3,43.8,65.7,39.8,63.3z"/>
</svg>
