<?xml version="1.0" encoding="UTF-8"?>
<!-- Generator: Adobe Illustrator 25.3.1, SVG Export Plug-In . SVG Version: 6.00 Build 0)  -->
<svg version="1.0" id="Layer_1" xmlns="http://www.w3.org/2000/svg" xmlns:xlink="http://www.w3.org/1999/xlink" x="0px" y="0px" viewBox="0 0 907 900" style="enable-background:new 0 0 907 900;" xml:space="preserve">
<style type="text/css">
	.Drop_x0020_Shadow{fill:none;}
	.Outer_x0020_Glow_x0020_5_x0020_pt{fill:none;}
	.Blue_x0020_Neon{fill:none;stroke:#8AACDA;stroke-width:7;stroke-linecap:round;stroke-linejoin:round;}
	.Chrome_x0020_Highlight{fill:url(#SVGID_1_);stroke:#FFFFFF;stroke-width:0.3629;stroke-miterlimit:1;}
	.Jive_GS{fill:#FFDD00;}
	.Alyssa_GS{fill:#A6D0E4;}
	.st0{clip-path:url(#SVGID_3_);fill:url(#Path_2_1_);}
	.st1{opacity:0.9;clip-path:url(#SVGID_3_);fill:url(#Path_3_1_);enable-background:new    ;}
</style>
<linearGradient id="SVGID_1_" gradientUnits="userSpaceOnUse" x1="-693" y1="0" x2="-693" y2="-1">
	<stop offset="0" style="stop-color:#656565"/>
	<stop offset="0.618" style="stop-color:#1B1B1B"/>
	<stop offset="0.6292" style="stop-color:#545454"/>
	<stop offset="0.9831" style="stop-color:#3E3E3E"/>
</linearGradient>
<g>
	<defs>
		<rect id="SVGID_2_" x="0" y="-1.3" width="907" height="900"/>
	</defs>
	<clipPath id="SVGID_3_">
		<use xlink:href="#SVGID_2_" style="overflow:visible;"/>
	</clipPath>
	
		<linearGradient id="Path_2_1_" gradientUnits="userSpaceOnUse" x1="-852.1962" y1="989.7047" x2="-851.2232" y2="990.4088" gradientTransform="matrix(1227.9686 -994.3893 -1142.9393 -1411.4126 2178132.25 551490.375)">
		<stop offset="0" style="stop-color:#FF8080"/>
		<stop offset="1" style="stop-color:#D10000"/>
	</linearGradient>
	<path id="Path_2_7_" class="st0" d="M1048.2,1071.6c428-193.4,508.8-831.9,508.8-831.9l-490.3-565.6L637.1-906.4   c0,0,117.9,363.3-118.2,644.8s-32.3,330.1-335,618.5s75.8,505.1,31.6,672.6S620.2,1265.1,1048.2,1071.6z"/>
	
		<linearGradient id="Path_3_1_" gradientUnits="userSpaceOnUse" x1="-852.1567" y1="989.6562" x2="-851.1837" y2="990.3602" gradientTransform="matrix(1358.223 -915.8585 -935.9288 -1387.9874 2084013.25 595118.625)">
		<stop offset="0" style="stop-color:#D50707"/>
		<stop offset="1" style="stop-color:#980C4C"/>
	</linearGradient>
	<path id="Path_3_7_" class="st1" d="M642.7,1207c443.5-151.4,1005.8-868.7,1005.8-868.7l-445.8-611.4L819-893.7   c0,0,89.2,373.6-169.3,631.5s-58.5,326-384.1,584.3s-4.1,412.3-61.6,575S199.2,1358.4,642.7,1207z"/>
</g>
</svg>