<?xml version="1.0" encoding="utf-8"?>
<!-- Generator: Adobe Illustrator 24.0.1, SVG Export Plug-In . SVG Version: 6.00 Build 0)  -->
<svg version="1.1" id="Layer_1" xmlns="http://www.w3.org/2000/svg" xmlns:xlink="http://www.w3.org/1999/xlink" x="0px" y="0px"
	 viewBox="0 0 103 100.7" style="enable-background:new 0 0 103 100.7;" xml:space="preserve">
<style type="text/css">
	.st0{fill:#6C6C6C;}
</style>
<path class="st0" d="M67.2,21.6c-7-7-13.7-13.7-15.7-21.3c-2,7.6-8.7,14.3-15.7,21.3C25.2,32.2,13.3,44.1,13.3,62
	c-0.1,21.1,17,38.3,38.1,38.4c21.1,0.1,38.3-17,38.4-38.1c0-0.1,0-0.2,0-0.3C89.7,44.1,77.8,32.2,67.2,21.6 M29.5,70.9
	c-2.3-0.1-11-15,5.1-30.9l10.6,11.6c0.4,0.4,0.4,0.9,0,1.3c0,0-0.1,0-0.1,0.1c-2.5,2.6-13.3,13.4-14.7,17.2
	C30.2,70.9,29.8,70.9,29.5,70.9 M51.5,90.6c-7.3,0-13.1-5.9-13.1-13.1c0,0,0,0,0,0c0-3.2,1.2-6.3,3.3-8.7c2.4-2.9,9.9-11.1,9.9-11.1
	s7.4,8.3,9.9,11c2.1,2.4,3.3,5.5,3.3,8.7C64.6,84.7,58.8,90.6,51.5,90.6 M76.7,69.2c-0.3,0.6-0.9,1.7-1.8,1.7
	c-1.5,0.1-1.7-0.7-2.9-2.4c-2.5-3.7-24.4-26.6-28.5-31c-3.6-3.9-0.5-6.6,0.9-8.1c1.8-1.8,7.1-7.1,7.1-7.1s15.7,14.9,22.2,25
	C80.2,57.5,78,66.3,76.7,69.2"/>
</svg>
