<svg xmlns="http://www.w3.org/2000/svg" width="48.795" height="78.808" viewBox="0 0 48.795 78.808">
  <g id="Group_48" data-name="Group 48" transform="translate(-121.571 -3767.644)">
    <g id="Group_46" data-name="Group 46">
      <path id="Path_2" data-name="Path 2" d="M154.484,3803.462a8.251,8.251,0,1,0-16.5.009,9.458,9.458,0,0,0,3.9,7.5v5.948a.629.629,0,0,0,.041.2v.068l2.1,3.124a.616.616,0,0,0,.512.271h3.4a.617.617,0,0,0,.513-.272l2.042-3.04.055-.114v-.037a.637.637,0,0,0,.041-.21v-5.934a9.461,9.461,0,0,0,3.9-7.5Zm-5.075,12.837h-6.288v-1.484H149.4Zm.4-6.258-.11.093-.015.01a.614.614,0,0,0-.278.517v2.937h-6.288v-2.97a.615.615,0,0,0-.276-.518,8.152,8.152,0,0,1-3.622-6.66,7,7,0,0,1,2.2-4.92,6.583,6.583,0,0,1,5.049-2.066,7.065,7.065,0,0,1,6.831,6.985A8.167,8.167,0,0,1,149.812,3810.041Zm-4.923,9.32-1.231-1.828h5.2l-1.224,1.828Z" fill="#de0022"/>
      <path id="Path_3" data-name="Path 3" d="M137.06,3803.438a.618.618,0,0,0-.617-.618h-4.208a.617.617,0,1,0,0,1.235h4.208A.618.618,0,0,0,137.06,3803.438Z" fill="#de0022"/>
      <path id="Path_4" data-name="Path 4" d="M160.29,3802.82h-4.208a.617.617,0,1,0,0,1.235h4.208a.617.617,0,0,0,0-1.235Z" fill="#de0022"/>
      <path id="Path_5" data-name="Path 5" d="M139.4,3809.743a.614.614,0,0,0-.451.148l-.008.007v-.011l-3.04,3.053a.617.617,0,0,0,.355,1.084l.046,0a.608.608,0,0,0,.4-.148.528.528,0,0,0,.067-.066l2.985-2.985a.619.619,0,0,0,.214-.421.618.618,0,0,0-.568-.663Z" fill="#de0022"/>
      <path id="Path_6" data-name="Path 6" d="M153.082,3797.1l.127.007a.622.622,0,0,0,.436-.18l2.977-2.976.023-.027a.617.617,0,0,0-.868-.867l-3,3a.617.617,0,0,0,.308,1.042Z" fill="#de0022"/>
      <path id="Path_7" data-name="Path 7" d="M156.646,3812.953l-3-3.008a.635.635,0,0,0-.87-.067.606.606,0,0,0-.214.421.614.614,0,0,0,.145.448.716.716,0,0,0,.067.067l2.983,2.982a.613.613,0,0,0,.4.244.6.6,0,0,0,.093.007.617.617,0,0,0,.494-.985A.586.586,0,0,0,156.646,3812.953Z" fill="#de0022"/>
      <path id="Path_8" data-name="Path 8" d="M138.871,3796.917l.027.023a.609.609,0,0,0,.386.136.37.37,0,0,0,.047,0,.616.616,0,0,0,.434-1l-2.992-3-.026-.023a.617.617,0,0,0-.867.867Z" fill="#de0022"/>
      <path id="Path_9" data-name="Path 9" d="M146.244,3794.445h.018a.617.617,0,0,0,.617-.617v-4.244a.617.617,0,0,0-1.234,0v4.225a.617.617,0,0,0,.6.635Z" fill="#de0022"/>
    </g>
    <g id="Group_47" data-name="Group 47">
      <path id="Path_10" data-name="Path 10" d="M165.924,3767.644H126.012a4.444,4.444,0,0,0-4.441,4.438v69.932a4.444,4.444,0,0,0,4.441,4.438h39.912a4.445,4.445,0,0,0,4.442-4.438v-69.932A4.445,4.445,0,0,0,165.924,3767.644Zm2.886,74.37a2.888,2.888,0,0,1-2.886,2.882H126.012a2.887,2.887,0,0,1-2.885-2.882v-7.524H168.81Zm0-9.032H123.127v-53.958H168.81Zm0-55.467H123.127v-5.433a2.887,2.887,0,0,1,2.885-2.884h39.912a2.888,2.888,0,0,1,2.886,2.884Z" fill="#de0022"/>
      <path id="Path_11" data-name="Path 11" d="M145.968,3838.044a1.695,1.695,0,1,0,1.695,1.7A1.7,1.7,0,0,0,145.968,3838.044Z" fill="#de0022"/>
    </g>
  </g>
</svg>