<?xml version="1.0" encoding="utf-8"?>
<!-- Generator: Adobe Illustrator 24.0.1, SVG Export Plug-In . SVG Version: 6.00 Build 0)  -->
<svg version="1.1" id="Layer_1" xmlns="http://www.w3.org/2000/svg" xmlns:xlink="http://www.w3.org/1999/xlink" x="0px" y="0px"
	 viewBox="0 0 158 77" style="enable-background:new 0 0 158 77;" xml:space="preserve">
<style type="text/css">
	.st0{fill:#6C6C6C;}
</style>
<g>
	<path class="st0" d="M2.3,20.3V6.9h13.2v13.4H2.3z M15.5,23.6V72H2.3V23.6H15.5z"/>
	<path class="st0" d="M75,6.9c2.8,0,5.5,0.5,8,1.6c2.5,1.1,4.6,2.5,6.5,4.3c1.9,1.8,3.3,4,4.4,6.5s1.7,5.1,1.7,8V72H82.3V26.4
		c-0.3-1.8-1.1-3.3-2.5-4.5c-1.4-1.2-3-1.9-4.9-1.9c-1.9,0-3.6,0.6-5,1.9c-1.4,1.3-2.2,2.8-2.4,4.7V72H54.4V27.4
		c0-2-0.7-3.7-2.2-5.2c-1.4-1.4-3.2-2.2-5.2-2.2c-1.9,0-3.5,0.6-4.8,1.8c-1.3,1.2-2.2,2.7-2.5,4.4V72H26.5V27.3c0-2.8,0.6-5.5,1.7-8
		s2.6-4.6,4.4-6.5s4-3.3,6.5-4.3s5.1-1.6,8-1.6c2.7,0,5.2,0.5,7.6,1.4c2.4,1,4.5,2.3,6.3,4c1.9-1.7,4-3.1,6.4-4
		C69.8,7.4,72.3,6.9,75,6.9z"/>
	<path class="st0" d="M151.3,39.5c1.6,1.7,2.8,3.7,3.8,5.9c0.9,2.2,1.4,4.6,1.5,7.2c-0.1,2.5-0.6,4.9-1.5,7.2
		c-0.9,2.2-2.2,4.2-3.8,5.9c0.1,0,0.1,0,0.1,0.1c-1.8,1.9-3.9,3.4-6.3,4.5c-2.4,1.1-5,1.7-7.8,1.7h-29.5V59.5h29.8
		c1.7-0.3,3.2-1,4.3-2.3c1.1-1.3,1.7-2.8,1.7-4.5v-0.1c0-1.7-0.6-3.2-1.7-4.4c-1.1-1.2-2.5-2-4.1-2.3h-15.1c-2.8,0-5.4-0.6-7.8-1.7
		c-2.4-1.1-4.5-2.6-6.3-4.5v-0.1c-1.6-1.7-2.8-3.7-3.8-5.9c-0.9-2.2-1.4-4.6-1.4-7.2c0-2.5,0.5-4.9,1.4-7.2c0.9-2.2,2.2-4.2,3.8-5.9
		v-0.1c1.8-1.9,3.9-3.4,6.3-4.5c2.4-1.1,5-1.7,7.8-1.7h29.5v12.5h-29.8c-1.7,0.3-3.2,1.1-4.3,2.3c-1.1,1.3-1.7,2.8-1.7,4.5v0.1
		c0,1.7,0.6,3.2,1.7,4.4c1.1,1.2,2.4,2,4,2.4h15.2c2.8,0,5.4,0.6,7.8,1.7c2.4,1.1,4.5,2.6,6.3,4.4C151.4,39.4,151.3,39.5,151.3,39.5
		z"/>
</g>
</svg>
