<svg xmlns="http://www.w3.org/2000/svg" width="74.553" height="65.803" viewBox="0 0 74.553 65.803">
  <g id="Group_62" data-name="Group 62" transform="translate(-488.048 -4080.877)">
    <g id="Group_61" data-name="Group 61">
      <path id="Path_31" data-name="Path 31" d="M557.411,4080.877H493.237a5.193,5.193,0,0,0-5.189,5.185v55.426a5.2,5.2,0,0,0,5.189,5.192h64.174a5.2,5.2,0,0,0,5.19-5.192v-55.426A5.193,5.193,0,0,0,557.411,4080.877Zm-43.751,63.5.272-.819a12.009,12.009,0,0,1,22.778,0l.272.819Zm25.1.676-.08-.393a13.632,13.632,0,0,0-26.722,0l-.079.393H496.468l-2.422-5.406.038-.161a1.742,1.742,0,0,1,1.716-1.38h5.3l.159-.61a24.745,24.745,0,0,1,2.664-6.417l.321-.542-3.761-3.78a1.714,1.714,0,0,1-.506-1.228,1.745,1.745,0,0,1,.513-1.245l5.448-5.442a1.79,1.79,0,0,1,2.475-.01l3.771,3.765.543-.321a24.8,24.8,0,0,1,6.418-2.664l.609-.157v-5.3a1.717,1.717,0,0,1,1.723-1.747h7.7a1.716,1.716,0,0,1,1.722,1.747v5.295l.609.157a24.869,24.869,0,0,1,6.419,2.675l.541.319,3.77-3.757a1.783,1.783,0,0,1,2.486,0l5.444,5.444a1.758,1.758,0,0,1,0,2.489l-3.751,3.752.32.542a25.534,25.534,0,0,1,2.668,6.425l.16.609h5.286a1.743,1.743,0,0,1,1.728,1.407l.024.129-.038.159-1.877,5.252Zm22.211-3.565a3.567,3.567,0,0,1-3.562,3.565h-1l1.739-4.881.074-.4a3.4,3.4,0,0,0-3.382-3.294h-4.031l-.138-.439a26.826,26.826,0,0,0-2.01-4.837l-.22-.408,2.869-2.866a3.392,3.392,0,0,0,0-4.788l-5.448-5.448a3.482,3.482,0,0,0-4.781-.006l-2.884,2.867-.406-.215a26.452,26.452,0,0,0-4.834-2.01l-.348-.106-.094-.391v-3.679a3.366,3.366,0,0,0-3.349-3.375h-7.7a3.366,3.366,0,0,0-3.349,3.375v4.044l-.442.135a26.236,26.236,0,0,0-4.833,2.006l-.409.217-2.876-2.873a3.477,3.477,0,0,0-4.774.006l-5.456,5.449a3.369,3.369,0,0,0-.989,2.391,3.333,3.333,0,0,0,.981,2.383l2.87,2.884-.216.405a26.89,26.89,0,0,0-2.007,4.838l-.135.441H495.8a3.367,3.367,0,0,0-3.372,3.161l0,.07,2.235,5.344h-1.422a3.568,3.568,0,0,1-3.562-3.565v-55.426a3.565,3.565,0,0,1,3.562-3.559h64.174a3.564,3.564,0,0,1,3.562,3.559Z" fill="#de0022"/>
      <g id="Group_58" data-name="Group 58">
        <path id="Path_32" data-name="Path 32" d="M553.5,4086.641a1.53,1.53,0,1,0,1.532,1.529A1.532,1.532,0,0,0,553.5,4086.641Z" fill="#de0022"/>
      </g>
      <g id="Group_59" data-name="Group 59">
        <path id="Path_33" data-name="Path 33" d="M548.531,4086.641a1.53,1.53,0,1,0,1.532,1.529A1.532,1.532,0,0,0,548.531,4086.641Z" fill="#de0022"/>
      </g>
      <g id="Group_60" data-name="Group 60">
        <path id="Path_34" data-name="Path 34" d="M543.56,4086.641a1.53,1.53,0,1,0,1.532,1.529A1.531,1.531,0,0,0,543.56,4086.641Z" fill="#de0022"/>
      </g>
    </g>
  </g>
</svg>