<svg xmlns="http://www.w3.org/2000/svg" viewBox="0 0 200 200"><defs><style>.cls-1{fill:none;}.cls-2{fill:#478aff;}</style></defs><g id="Layer_2" data-name="Layer 2"><g id="Layer_1-2" data-name="Layer 1"><rect class="cls-1" width="200" height="200"/><path class="cls-2" d="M133.2,100A33.18,33.18,0,1,0,99.78,133.2,33.21,33.21,0,0,0,133.2,100Zm14.62-30.44a15.09,15.09,0,1,0-15.11-15.07A15.09,15.09,0,0,0,147.82,69.59Z"/><path class="cls-2" d="M103.23,27l3.77.37a71.89,71.89,0,0,1,27.43,8.3s.09.07.08.07a62.14,62.14,0,0,0-4.63,4.85,63.57,63.57,0,0,0-3.61,5.75c-16.7-7.73-33.74-8.25-50.8-.73A57.9,57.9,0,0,0,47.74,71.05a59.74,59.74,0,0,0,81.12,81.31,58,58,0,0,0,27.67-33.05c4.95-14.51,4.2-28.88-1.72-43.09a23.84,23.84,0,0,0,11-7.79c.83,2,1.64,3.78,2.34,5.61a72,72,0,0,1,4.57,20.59,72.92,72.92,0,0,1-40.49,70.77,70.27,70.27,0,0,1-23.09,6.89c-2.32.28-4.66.38-7,.56-.4,0-.78.1-1.17.15H99.17c-.34,0-.67-.11-1-.13-1.94-.13-3.88-.21-5.82-.4A70.23,70.23,0,0,1,73,167.72,72.88,72.88,0,0,1,27.17,104,70.6,70.6,0,0,1,28.63,85,73,73,0,0,1,93.45,27.35L96.8,27Z"/><path class="cls-2" d="M133.2,100A33.18,33.18,0,1,1,100.25,66.8,33.17,33.17,0,0,1,133.2,100Z"/><path class="cls-2" d="M147.82,69.59a15.09,15.09,0,1,1,15.08-15A15.08,15.08,0,0,1,147.82,69.59Z"/></g></g></svg>