<?xml version="1.0" encoding="utf-8"?>
<!-- Generator: Adobe Illustrator 24.0.1, SVG Export Plug-In . SVG Version: 6.00 Build 0)  -->
<svg version="1.1" id="Layer_1" xmlns="http://www.w3.org/2000/svg" xmlns:xlink="http://www.w3.org/1999/xlink" x="0px" y="0px"
	 viewBox="0 0 89 126" style="enable-background:new 0 0 89 126;" xml:space="preserve">
<style type="text/css">
	.st0{fill:#6C6C6C;}
</style>
<path class="st0" d="M78.9,14.8c0-5.9-3.1-9-8.9-9c-16.7,0-33.5,0-50.2,0c-6.1,0-9.1,3-9.1,9.2c0,39.2,0,55-0.1,94.2
	c0,4.9,1.5,8.2,6.3,9.9c18.6,0,37.2,0,55.8,0c4.7-1.6,6.3-5,6.3-9.9C78.9,69.9,78.9,54,78.9,14.8z M50.5,112.4H39.2
	c-1.1,0-1.9-0.9-1.9-1.9c0-1.1,0.9-1.9,1.9-1.9h11.3c1.1,0,1.9,0.9,1.9,1.9C52.4,111.5,51.5,112.4,50.5,112.4z M74.2,101.8
	c-19.6,0-39.1,0-58.7,0c0-34.1,0-44.7,0-78.8c19.5,0,39.1,0,58.7,0C74.2,57,74.2,67.6,74.2,101.8z"/>
</svg>
