<?xml version="1.0" encoding="utf-8"?>
<!-- Generator: Adobe Illustrator 26.0.1, SVG Export Plug-In . SVG Version: 6.00 Build 0)  -->
<svg version="1.1" id="Layer_1" xmlns="http://www.w3.org/2000/svg" xmlns:xlink="http://www.w3.org/1999/xlink" x="0px" y="0px"
	 viewBox="0 0 290.6 93.1" style="enable-background:new 0 0 290.6 93.1;" xml:space="preserve">
<style type="text/css">
	.st0{fill:#FFFFFF;}
	.st1{fill:#DD2432;}
	.st2{fill:#F2F2F2;}
</style>
<g id="NeoNXT" transform="translate(-72.2 -10.8)">
	<g id="Group_1" transform="translate(72.2 10.8)">
		<path id="Path_1" class="st0" d="M101.4,41.1c-0.2-4.8,3.5-9,8.4-9.2c4.8-0.2,9,3.5,9.2,8.4c0,0.3,0,0.5,0,0.8
			c0.2,4.8-3.5,9-8.4,9.2c-4.8,0.2-9-3.5-9.2-8.4C101.4,41.6,101.4,41.3,101.4,41.1z M90.4,41.1c0,9,6.4,19.4,19.8,19.4
			c13.3,0,19.8-10.5,19.8-19.4s-6.4-19.4-19.8-19.4S90.4,32.1,90.4,41.1z M58.6,36.6c0.3-1.7,2.5-5.7,8.2-5.7s7.9,4.1,8.2,5.7H58.6z
			 M85.7,44.8c0.8-6.7-0.5-12.5-5.1-17.6c-3.6-3.8-8.7-5.9-13.9-5.9c-11.2,0-19.2,9.4-19.2,19.6c0,10.7,8.7,19.3,19.3,19.3
			c3.7,0,7.4-1.2,10.5-3.3c3.3-2.3,5.9-5.6,7.4-9.4H73.5c-1.4,2.3-4,3.6-6.7,3.4c-4.3,0-7.9-2.6-8.5-6.5L85.7,44.8L85.7,44.8z
			 M10.8,10.7H0v48.7h11.9L11.6,30l18.6,29.4H41V10.7H29.1l0.3,29.7L10.8,10.7z"/>
		<path id="Path_2" class="st0" d="M145.6,10.7h-10.8v48.7h11.9L146.4,30L165,59.4h10.8V10.7h-11.9l0.3,29.7L145.6,10.7z"/>
		<path id="Path_3" class="st0" d="M266.4,59.4h12.4V21.5h11.7V10.7h-35.8v10.9h11.7V59.4z"/>
		<path id="Path_4" class="st1" d="M172.1,67.6h21.9L216.3,45l-11-11.2L172.1,67.6z"/>
		<path id="Path_5" class="st1" d="M211.2,16.6l-11.5,11.7L216.3,45l9.6-9.7c1-1.1,1-2.9,0-4L211.2,16.6z"/>
		<path id="Path_6" class="st2" d="M205.5,10.7h-23l22.9,23.2l6.6-6.7c2.7-2.8,2.7-7.2,0-10L205.5,10.7z"/>
		<path id="Path_7" class="st2" d="M220.5,49.3l9.9,10h23l-21.3-21.6L220.5,49.3z"/>
		<path id="Path_8" class="st1" d="M260.8,0h-21.9l-18.2,18.4l11.1,11.1L260.8,0z"/>
	</g>
	<g id="Group_2" transform="translate(74.917 89.396)">
		<path id="Path_9" class="st0" d="M9.6,11.3H7.7L2,3.3v7.9H0V0.2h2l5.6,7.7V0.2h2V11.3z"/>
		<path id="Path_10" class="st0" d="M15.7,11.5c-1.1,0-2.2-0.4-3-1.2c-0.8-0.8-1.2-1.9-1.2-3c0-1.1,0.4-2.2,1.2-3
			C13.4,3.5,14.5,3,15.6,3c1.1,0,2.1,0.4,2.8,1.3c0.7,0.9,1.1,2,1,3.1v0.4h-6.2C13.3,8.4,13.6,9,14,9.4c0.5,0.4,1.1,0.7,1.8,0.6
			c0.9,0,1.7-0.3,2.3-0.9l0.8,1.2C18.1,11.1,16.9,11.5,15.7,11.5z M17.8,6.6c0-0.6-0.2-1.1-0.6-1.5c-0.4-0.4-1.1-0.7-1.7-0.6
			c-0.6-0.1-1.2,0.2-1.6,0.6c-0.4,0.4-0.6,0.9-0.6,1.5H17.8z"/>
		<path id="Path_11" class="st0" d="M28.3,11.3h-2l-2.1-2.9l-2.1,2.9h-2l2.9-4.1l-2.8-3.9h2l1.9,2.7L26,3.3h2l-2.7,3.8L28.3,11.3z"
			/>
		<path id="Path_12" class="st0" d="M31.9,11.5c-1,0.1-2-0.6-2.1-1.6c0-0.2,0-0.3,0-0.5V4.8h-1.4V3.3h1.4V1h1.8v2.2h1.7v1.5h-1.7
			v4.2c0,0.3,0.1,0.5,0.2,0.7c0.1,0.2,0.3,0.3,0.5,0.3c0.3,0,0.6-0.1,0.7-0.3l0.4,1.4C33,11.3,32.4,11.5,31.9,11.5z"/>
		<path id="Path_13" class="st0" d="M44.3,11.5c-1.5,0-2.9-0.5-4-1.6c-1.1-1.1-1.7-2.6-1.7-4.2c-0.1-1.6,0.5-3.1,1.7-4.2
			C41.5,0.5,43,0,44.5,0C46.3-0.1,48,0.8,49,2.3l-1.6,0.9c-0.7-0.9-1.8-1.4-2.9-1.5c-1,0-2,0.4-2.7,1.2c-0.7,0.8-1.1,1.8-1,2.9
			c-0.1,2.1,1.5,3.8,3.5,4c0.1,0,0.2,0,0.2,0c0.8,0,1.6-0.2,2.2-0.7c0.6-0.5,1-1.2,1-2h-4V5.4h6.1c0.1,1.6-0.4,3.2-1.5,4.5
			C47.3,11,45.8,11.6,44.3,11.5z"/>
		<path id="Path_14" class="st0" d="M54.8,11.5c-1.1,0-2.2-0.4-3-1.2c-0.8-0.8-1.2-1.9-1.2-3c0-1.1,0.4-2.2,1.2-3
			C52.5,3.5,53.6,3,54.7,3c1.1,0,2.1,0.4,2.8,1.3c0.7,0.9,1.1,2,1,3.1v0.4h-6.2c0.1,0.6,0.3,1.1,0.7,1.6c0.5,0.4,1.1,0.7,1.8,0.6
			c0.9,0,1.7-0.3,2.3-0.9l0.8,1.2C57.2,11.1,56,11.5,54.8,11.5z M56.9,6.6c0-0.6-0.2-1.1-0.6-1.5c-0.4-0.4-1.1-0.7-1.7-0.6
			C54,4.4,53.4,4.7,53,5.1c-0.4,0.4-0.6,0.9-0.6,1.5H56.9z"/>
		<path id="Path_15" class="st0" d="M67.5,11.3h-1.8v-5c0-0.6-0.1-1-0.4-1.3c-0.4-0.3-0.8-0.4-1.3-0.4c-0.4,0-0.8,0.1-1.1,0.3
			c-0.4,0.2-0.7,0.4-0.9,0.7v5.6h-1.8v-8H62v1c0.4-0.4,0.8-0.7,1.3-0.9c0.5-0.2,1.1-0.4,1.7-0.4c0.7,0,1.4,0.2,2,0.6
			c0.5,0.5,0.7,1.2,0.6,1.9L67.5,11.3L67.5,11.3z"/>
		<path id="Path_16" class="st0" d="M73.5,11.5c-1.1,0-2.2-0.4-3-1.2c-0.8-0.8-1.2-1.9-1.1-3c0-1.1,0.4-2.2,1.1-3
			C71.2,3.5,72.3,3,73.4,3c1.1,0,2.1,0.4,2.8,1.3c0.7,0.9,1.1,2,1,3.1v0.4h-6.2c0.1,0.6,0.3,1.1,0.7,1.6c0.5,0.4,1.1,0.7,1.8,0.6
			c0.9,0,1.7-0.3,2.3-0.9l0.8,1.2C75.9,11.1,74.7,11.6,73.5,11.5z M75.6,6.6c0-0.6-0.2-1.1-0.6-1.5c-0.4-0.4-1.1-0.7-1.7-0.6
			c-0.6-0.1-1.2,0.2-1.6,0.6c-0.4,0.4-0.6,0.9-0.6,1.5H75.6z"/>
		<path id="Path_17" class="st0" d="M80.8,11.3H79v-8h1.8v1.2c0.3-0.4,0.7-0.7,1.1-0.9c0.4-0.2,1-0.4,1.5-0.4v1.8h-0.5
			c-0.4,0-0.8,0.1-1.1,0.3c-0.4,0.2-0.7,0.4-0.9,0.7L80.8,11.3z"/>
		<path id="Path_18" class="st0" d="M92.2,11.3h-1.8v-1.2c-0.6,0.8-1.6,1.3-2.6,1.3c-1,0-1.9-0.4-2.6-1.2c-0.8-0.9-1.1-2-1-3.1
			c-0.1-1.1,0.3-2.2,1-3c0.7-0.7,1.6-1.1,2.6-1.2c1,0,2,0.5,2.6,1.4V3.1h1.8V11.3z M88.4,9.9c0.4,0,0.8-0.1,1.1-0.3
			c0.4-0.2,0.7-0.4,0.8-0.7V5.7c-0.2-0.3-0.5-0.5-0.8-0.7c-0.4-0.2-0.7-0.3-1.1-0.3c-0.6,0-1.3,0.2-1.7,0.7
			c-0.4,0.5-0.6,1.2-0.6,1.9c-0.1,0.7,0.2,1.4,0.6,1.9C87.2,9.7,87.8,9.9,88.4,9.9z"/>
		<path id="Path_19" class="st0" d="M96.9,11.5c-1,0.1-2-0.6-2.1-1.6c0-0.2,0-0.3,0-0.5V4.8h-1.4V3.3h1.4V1h1.8v2.2h1.7v1.5h-1.7
			v4.2c0,0.3,0.1,0.5,0.2,0.7c0.1,0.2,0.3,0.3,0.5,0.3c0.3,0,0.6-0.1,0.7-0.3l0.4,1.4C98,11.3,97.5,11.5,96.9,11.5z"/>
		<path id="Path_20" class="st0" d="M101.4,1.9c-0.4,0.4-1,0.4-1.4,0c-0.4-0.4-0.4-1,0-1.4c0.4-0.4,1-0.4,1.4,0
			c0.2,0.2,0.3,0.4,0.3,0.7C101.7,1.4,101.6,1.7,101.4,1.9z M101.5,11.3h-1.8v-8h1.8L101.5,11.3z"/>
		<path id="Path_21" class="st0" d="M110.4,10.2c-0.8,0.8-1.9,1.3-3,1.3c-1.1,0-2.2-0.4-3-1.3c-0.8-0.8-1.2-1.9-1.1-3
			c0-1.1,0.4-2.2,1.1-3c0.8-0.8,1.9-1.3,3-1.3c1.1,0,2.2,0.4,3,1.3c0.8,0.8,1.2,1.9,1.1,3C111.6,8.3,111.2,9.4,110.4,10.2z
			 M107.4,9.9c0.6,0,1.3-0.2,1.7-0.7c0.8-1.1,0.8-2.6,0-3.8c-0.9-0.9-2.3-1-3.2-0.1c0,0-0.1,0.1-0.1,0.1c-0.8,1.1-0.8,2.6,0,3.8
			C106.2,9.7,106.8,9.9,107.4,9.9L107.4,9.9z"/>
		<path id="Path_22" class="st0" d="M120.5,11.3h-1.8v-5c0-0.6-0.1-1-0.4-1.3c-0.4-0.3-0.8-0.4-1.3-0.4c-0.4,0-0.8,0.1-1.1,0.3
			c-0.4,0.2-0.7,0.4-0.9,0.7v5.6h-1.8v-8h1.8v1c0.4-0.4,0.8-0.7,1.3-0.9c0.5-0.2,1.1-0.4,1.7-0.4c0.7,0,1.4,0.2,2,0.6
			c0.5,0.5,0.7,1.2,0.6,1.9L120.5,11.3L120.5,11.3z"/>
		<path id="Path_23" class="st0" d="M133.7,10.2c-0.8,0.8-1.9,1.3-3,1.3c-1.1,0-2.2-0.4-3-1.3c-0.8-0.8-1.2-1.9-1.1-3
			c0-1.1,0.4-2.2,1.1-3c0.8-0.8,1.9-1.3,3-1.3c1.1,0,2.2,0.4,3,1.3c0.8,0.8,1.2,1.9,1.1,3C134.9,8.3,134.5,9.4,133.7,10.2z
			 M130.8,9.9c0.6,0,1.3-0.2,1.7-0.7c0.8-1.1,0.8-2.6,0-3.8c-0.9-0.9-2.3-1-3.2-0.1c0,0-0.1,0.1-0.1,0.1c-0.8,1.1-0.8,2.6,0,3.8
			C129.5,9.7,130.1,9.9,130.8,9.9L130.8,9.9z"/>
		<path id="Path_24" class="st0" d="M138.8,11.3H137V4.8h-1.4V3.3h1.4V2.9c0-0.8,0.2-1.5,0.7-2.1c0.5-0.5,1.2-0.8,1.9-0.7
			c0.5,0,1,0.1,1.5,0.3l-0.4,1.4c-0.2-0.1-0.5-0.2-0.7-0.2c-0.7,0-1.1,0.4-1.1,1.4v0.4h1.7v1.5h-1.7V11.3z"/>
		<path id="Path_25" class="st0" d="M153.7,11.3h-7.6V0.2h7.6v1.7h-5.6v2.8h5.5v1.7h-5.5v3.1h5.6L153.7,11.3z"/>
		<path id="Path_26" class="st0" d="M162.8,11.3h-1.8v-5c0-0.6-0.1-1-0.4-1.3c-0.4-0.3-0.8-0.4-1.3-0.4c-0.4,0-0.8,0.1-1.1,0.3
			c-0.4,0.2-0.7,0.4-0.9,0.7v5.6h-1.8v-8h1.8v1c0.4-0.4,0.8-0.7,1.3-0.9c0.5-0.2,1.1-0.4,1.7-0.4c0.7,0,1.4,0.2,2,0.6
			c0.5,0.5,0.7,1.2,0.6,1.9L162.8,11.3L162.8,11.3z"/>
		<path id="Path_27" class="st0" d="M168.4,14.5c-1.2,0-2.4-0.4-3.3-1.2l0.8-1.3c0.7,0.7,1.6,1.1,2.6,1c0.6,0,1.2-0.2,1.7-0.5
			c0.5-0.4,0.8-1,0.7-1.7V10c-0.6,0.9-1.6,1.4-2.6,1.4c-1,0-2-0.4-2.6-1.2c-1.3-1.8-1.3-4.2,0-6.1c0.6-0.8,1.6-1.2,2.6-1.2
			c1,0,2,0.5,2.6,1.4V3.2h1.8v7.6c0,0.6-0.1,1.2-0.3,1.8c-0.2,0.5-0.5,0.9-0.9,1.2c-0.4,0.2-0.9,0.4-1.4,0.5
			C169.5,14.4,168.9,14.5,168.4,14.5z M168.7,9.7c0.4,0,0.8-0.1,1.1-0.3c0.4-0.2,0.7-0.4,0.9-0.7v-3c-0.2-0.3-0.6-0.6-0.9-0.7
			c-0.4-0.2-0.7-0.3-1.1-0.3c-0.6,0-1.3,0.2-1.7,0.7c-0.8,1.1-0.8,2.6,0,3.8C167.5,9.5,168.1,9.8,168.7,9.7L168.7,9.7z"/>
		<path id="Path_28" class="st0" d="M176.4,1.9c-0.4,0.4-1,0.4-1.4,0c-0.4-0.4-0.4-1,0-1.4c0.4-0.4,1-0.4,1.4,0
			c0.2,0.2,0.3,0.4,0.3,0.7C176.7,1.4,176.6,1.7,176.4,1.9z M176.5,11.3h-1.8v-8h1.8L176.5,11.3z"/>
		<path id="Path_29" class="st0" d="M185.9,11.3h-1.8v-5c0-0.6-0.1-1-0.4-1.3c-0.4-0.3-0.8-0.4-1.3-0.4c-0.4,0-0.8,0.1-1.1,0.3
			c-0.4,0.2-0.7,0.4-0.9,0.7v5.6h-1.8v-8h1.8v1c0.4-0.4,0.8-0.7,1.3-0.9c0.5-0.2,1.1-0.4,1.7-0.4c0.7,0,1.4,0.2,2,0.6
			c0.5,0.5,0.7,1.2,0.6,1.9L185.9,11.3z"/>
		<path id="Path_30" class="st0" d="M192,11.5c-1.1,0-2.2-0.4-3-1.2c-0.8-0.8-1.2-1.9-1.1-3c0-1.1,0.4-2.2,1.1-3
			c0.7-0.8,1.8-1.3,2.9-1.3c1.1,0,2.1,0.4,2.8,1.3c0.7,0.9,1.1,2,1,3.1v0.4h-6.2c0.1,0.6,0.3,1.1,0.7,1.6c0.5,0.4,1.1,0.7,1.8,0.6
			c0.9,0,1.7-0.3,2.3-0.9l0.8,1.2C194.4,11.1,193.2,11.5,192,11.5z M194.1,6.6c0-0.6-0.2-1.1-0.6-1.5c-0.4-0.4-1.1-0.7-1.7-0.6
			c-0.6-0.1-1.2,0.2-1.6,0.6c-0.4,0.4-0.6,0.9-0.6,1.5H194.1z"/>
		<path id="Path_31" class="st0" d="M201.2,11.5c-1.1,0-2.2-0.4-3-1.2c-0.8-0.8-1.2-1.9-1.1-3c0-1.1,0.4-2.2,1.1-3
			c0.7-0.8,1.8-1.3,2.9-1.3c1.1,0,2.1,0.4,2.8,1.3c0.7,0.9,1.1,2,1,3.1v0.4h-6.2c0.1,0.6,0.3,1.1,0.7,1.6c0.5,0.4,1.1,0.7,1.8,0.6
			c0.9,0,1.7-0.3,2.3-0.9l0.8,1.2C203.6,11.1,202.4,11.6,201.2,11.5z M203.4,6.6c0-0.6-0.2-1.1-0.6-1.5c-0.4-0.4-1.1-0.7-1.7-0.6
			c-0.6-0.1-1.2,0.2-1.6,0.6c-0.4,0.4-0.6,0.9-0.6,1.5H203.4z"/>
		<path id="Path_32" class="st0" d="M208.5,11.3h-1.8v-8h1.8v1.2c0.3-0.4,0.7-0.7,1.1-0.9c0.4-0.2,1-0.4,1.5-0.4v1.8h-0.5
			c-0.4,0-0.8,0.1-1.1,0.3c-0.4,0.2-0.7,0.4-0.9,0.7L208.5,11.3z"/>
		<path id="Path_33" class="st0" d="M214.2,1.9c-0.4,0.4-1,0.4-1.4,0c-0.4-0.4-0.4-1,0-1.4c0.4-0.4,1-0.4,1.4,0
			c0.2,0.2,0.3,0.4,0.3,0.7C214.5,1.4,214.4,1.7,214.2,1.9z M214.3,11.3h-1.8v-8h1.8V11.3z"/>
		<path id="Path_34" class="st0" d="M223.8,11.3H222v-5c0-0.6-0.1-1-0.4-1.3c-0.4-0.3-0.8-0.4-1.3-0.4c-0.4,0-0.8,0.1-1.1,0.3
			c-0.4,0.2-0.7,0.4-0.9,0.7v5.6h-1.7v-8h1.8v1c0.4-0.4,0.8-0.7,1.3-0.9c0.5-0.2,1.1-0.4,1.7-0.4c0.7,0,1.4,0.2,2,0.6
			c0.5,0.5,0.7,1.2,0.6,1.9v5.9L223.8,11.3z"/>
		<path id="Path_35" class="st0" d="M229.3,14.5c-1.2,0-2.4-0.4-3.3-1.2l0.8-1.3c0.7,0.7,1.6,1.1,2.6,1c0.6,0,1.2-0.2,1.7-0.5
			c0.5-0.4,0.8-1,0.7-1.7V10c-0.6,0.9-1.6,1.4-2.6,1.4c-1,0-2-0.4-2.6-1.2c-1.3-1.8-1.3-4.2,0-6.1c0.6-0.8,1.6-1.2,2.6-1.2
			c1,0,2,0.5,2.6,1.4V3.2h1.8v7.6c0,0.6-0.1,1.2-0.3,1.8c-0.2,0.5-0.5,0.9-0.9,1.2c-0.4,0.2-0.9,0.4-1.4,0.5
			C230.4,14.4,229.9,14.5,229.3,14.5z M229.6,9.7c0.4,0,0.8-0.1,1.1-0.3c0.4-0.2,0.7-0.4,0.9-0.7v-3c-0.2-0.3-0.6-0.6-0.9-0.7
			c-0.4-0.2-0.7-0.3-1.1-0.3c-0.6,0-1.3,0.2-1.7,0.7c-0.8,1.1-0.8,2.6,0,3.8C228.4,9.5,229,9.8,229.6,9.7L229.6,9.7z"/>
		<path id="Path_36" class="st0" d="M244.6,11.3h-1.9V1.9h-3.3V0.2h8.7v1.7h-3.3v9.4L244.6,11.3z"/>
		<path id="Path_37" class="st0" d="M255.2,11.3h-1.8v-1.2c-0.6,0.8-1.6,1.3-2.6,1.3c-1,0-1.9-0.4-2.6-1.2c-0.8-0.9-1.1-2-1-3.1
			c-0.1-1.1,0.3-2.2,1-3c0.7-0.7,1.6-1.1,2.6-1.2c1,0,2,0.5,2.6,1.4V3.1h1.8V11.3z M251.5,9.9c0.4,0,0.8-0.1,1.1-0.3
			c0.4-0.2,0.7-0.4,0.8-0.7V5.7c-0.2-0.3-0.5-0.5-0.8-0.7c-0.4-0.2-0.7-0.3-1.1-0.3c-0.6,0-1.3,0.2-1.7,0.7
			c-0.4,0.5-0.6,1.2-0.6,1.9c-0.1,0.7,0.2,1.4,0.6,1.9C250.2,9.7,250.8,9.9,251.5,9.9z"/>
		<path id="Path_38" class="st0" d="M259.5,11.5c-0.6,0-1.1-0.2-1.6-0.5c-0.4-0.4-0.6-1-0.5-1.6V0.2h1.8V9c0,0.3,0.1,0.5,0.2,0.7
			c0.1,0.2,0.3,0.3,0.5,0.3c0.3,0,0.6-0.1,0.7-0.3l0.4,1.4C260.6,11.4,260.1,11.5,259.5,11.5z"/>
		<path id="Path_39" class="st0" d="M266,11.5c-1.1,0-2.2-0.4-3-1.2c-0.8-0.8-1.2-1.9-1.1-3c0-1.1,0.4-2.2,1.1-3
			c0.7-0.8,1.8-1.3,2.9-1.3c1.1,0,2.1,0.4,2.8,1.3c0.7,0.9,1.1,2,1,3.1v0.4h-6.2c0.1,0.6,0.3,1.1,0.7,1.6c0.5,0.4,1.1,0.7,1.8,0.6
			c0.9,0,1.7-0.3,2.3-0.9l0.8,1.2C268.4,11.1,267.2,11.5,266,11.5z M268.1,6.6c0-0.6-0.2-1.1-0.6-1.5c-0.4-0.4-1.1-0.7-1.7-0.6
			c-0.6-0.1-1.2,0.2-1.6,0.6c-0.4,0.4-0.6,0.9-0.6,1.5H268.1z"/>
		<path id="Path_40" class="st0" d="M278.7,11.3H277v-5c0-0.6-0.1-1-0.4-1.3c-0.4-0.3-0.8-0.4-1.3-0.4c-0.4,0-0.8,0.1-1.1,0.3
			c-0.3,0.2-0.7,0.5-0.9,0.7v5.6h-1.8v-8h1.8v1c0.4-0.4,0.8-0.7,1.3-0.9c0.5-0.2,1.1-0.4,1.7-0.4c0.7,0,1.4,0.2,2,0.6
			c0.5,0.5,0.7,1.2,0.6,1.9L278.7,11.3z"/>
		<path id="Path_41" class="st0" d="M283.4,11.5c-1,0.1-2-0.6-2.1-1.6c0-0.2,0-0.3,0-0.5V4.8H280V3.3h1.4V1h1.8v2.2h1.7v1.5h-1.7
			v4.2c0,0.3,0.1,0.5,0.2,0.7c0.1,0.2,0.3,0.3,0.5,0.3c0.3,0,0.6-0.1,0.7-0.3L285,11C284.6,11.3,284,11.5,283.4,11.5z"/>
	</g>
</g>
</svg>
