<?xml version="1.0" encoding="utf-8"?>
<!-- Generator: Adobe Illustrator 26.0.1, SVG Export Plug-In . SVG Version: 6.00 Build 0)  -->
<svg version="1.1" id="Group_2" xmlns="http://www.w3.org/2000/svg" xmlns:xlink="http://www.w3.org/1999/xlink" x="0px" y="0px"
	 viewBox="0 0 756.2 277.2" style="enable-background:new 0 0 756.2 277.2;" xml:space="preserve">
<style type="text/css">
	.st0{clip-path:url(#SVGID_00000027574108395670233330000001657577298742175622_);}
	.st1{fill:#FFFFFF;}
	.st2{fill:#E9282B;}
	.st3{fill:#D3D3D3;}
</style>
<g>
	<defs>
		<rect id="SVGID_1_" width="756.2" height="277.2"/>
	</defs>
	<clipPath id="SVGID_00000173881135878501214500000010522658044375075218_">
		<use xlink:href="#SVGID_1_"  style="overflow:visible;"/>
	</clipPath>
	<g id="Group_1" style="clip-path:url(#SVGID_00000173881135878501214500000010522658044375075218_);">
		<path id="Path_1" class="st1" d="M165.9,131.8c-0.4-7.7,5.6-14.3,13.3-14.6c7.7-0.4,14.3,5.6,14.6,13.3c0,0.4,0,0.9,0,1.3
			c0.4,7.7-5.6,14.3-13.3,14.6c-7.7,0.4-14.3-5.6-14.6-13.3l0,0C165.9,132.7,165.9,132.2,165.9,131.8 M148.4,131.8
			c0,14.3,10.1,30.9,31.4,30.9c21.1,0,31.4-16.6,31.4-30.9c0-14.3-10.1-30.9-31.4-30.9S148.4,117.5,148.4,131.8 M97.9,124.7
			c0.5-2.7,4-9.1,13-9.1s12.6,6.5,13,9.1H97.9z M140.9,137.8c1.3-10.6-0.8-20-8.1-27.9c-5.7-6.1-13.8-9.4-22.1-9.3
			c-17.8,0-30.6,15-30.6,31.3c0,17,13.8,30.7,30.8,30.8c6,0,11.8-1.8,16.6-5.3c5.3-3.7,9.4-8.9,11.8-15h-17.8
			c-2.3,3.6-6.4,5.7-10.6,5.5c-6.8,0-12.6-4.2-13.5-10.3L140.9,137.8L140.9,137.8z M21.7,83.4H4.6v77.5h19l-0.5-46.7l29.6,46.7h17.1
			V83.4h-19l0.5,47.2L21.7,83.4z"/>
		<path id="Path_162" class="st2" d="M18.8,185.2l-0.4,1.7h-4.2l-1,4.8h4.5l-0.4,1.7h-4.4l-1.4,6.4h-2l1.4-6.4h-4l-1.4,6.4h-2
			l1.4-6.4H0.5l0.3-1.7h4.3l1-4.8H1.6l0.3-1.7h4.5l1.4-6.5h2l-1.4,6.5h4.1l1.4-6.5h2l-1.3,6.5H18.8z M12.2,186.9H8.2l-1.1,4.8h4.1
			L12.2,186.9z M42.1,200.8c-2,1-4.2,1.4-6.4,1.4c-3,0.1-5.8-1-7.9-3.2c-2-2.3-3.1-5.3-3-8.3c-0.1-3.3,1.1-6.5,3.3-9
			c2.2-2.3,5.3-3.5,8.5-3.4c1.9-0.1,3.7,0.3,5.4,1v2.9c-1.7-0.9-3.6-1.4-5.5-1.4c-2.4-0.1-4.8,0.9-6.5,2.7c-1.7,2-2.6,4.5-2.5,7.1
			c-0.1,2.5,0.7,4.9,2.3,6.7c1.6,1.7,3.8,2.6,6.1,2.5c2.1,0.1,4.2-0.5,6-1.5L42.1,200.8z M63.7,194.2H52c-0.1,1.6,0.5,3.1,1.5,4.3
			c1,1,2.4,1.6,3.9,1.5c1.9,0,3.7-0.7,5.1-1.8v2.5c-1.7,1.1-3.7,1.7-5.8,1.6c-2.1,0.1-4.1-0.7-5.5-2.2c-1.4-1.8-2.1-4-2-6.3
			c-0.1-2.3,0.7-4.5,2.2-6.3c1.4-1.6,3.3-2.5,5.4-2.4c1.9-0.1,3.8,0.7,5,2.1c1.3,1.7,1.9,3.7,1.8,5.8L63.7,194.2z M60.9,192
			c0.1-1.3-0.3-2.5-1.1-3.6c-0.8-0.9-1.9-1.3-3-1.3c-1.2,0-2.4,0.5-3.2,1.3c-0.9,1-1.5,2.2-1.6,3.5L60.9,192z M85.2,201.8h-2.6v-9.4
			c0-3.5-1.3-5.3-3.8-5.3c-1.3,0-2.5,0.5-3.3,1.5c-0.9,1-1.3,2.4-1.3,3.8v9.4h-2.6v-16.5h2.6v2.7h0.1c1.1-2,3.2-3.2,5.4-3.1
			c1.6-0.1,3.1,0.5,4.1,1.7c1,1.5,1.6,3.3,1.4,5.1V201.8z M101.8,201.6c-0.8,0.4-1.6,0.6-2.5,0.5c-2.9,0-4.3-1.6-4.3-4.8v-9.8h-2.8
			v-2.3H95v-4l2.6-0.9v4.9h4.2v2.3h-4.2v9.3c-0.1,0.8,0.1,1.7,0.6,2.4c0.5,0.5,1.2,0.8,1.9,0.7c0.6,0,1.2-0.2,1.7-0.5L101.8,201.6z
			 M122.4,194.2h-11.6c-0.1,1.6,0.5,3.1,1.5,4.3c1,1,2.4,1.6,3.9,1.5c1.9,0,3.7-0.7,5.1-1.8v2.5c-1.7,1.1-3.7,1.7-5.8,1.6
			c-2.1,0.1-4.1-0.7-5.5-2.2c-1.4-1.8-2.1-4-2-6.3c-0.1-2.3,0.7-4.5,2.2-6.3c1.4-1.6,3.3-2.5,5.4-2.4c1.9-0.1,3.8,0.7,5,2.1
			c1.3,1.7,1.9,3.7,1.8,5.8L122.4,194.2z M119.7,192c0.1-1.3-0.3-2.5-1.1-3.6c-0.8-0.9-1.9-1.3-3-1.3c-1.2,0-2.4,0.5-3.2,1.3
			c-0.9,1-1.5,2.2-1.6,3.5L119.7,192z M138.9,188c-0.6-0.4-1.3-0.6-2-0.5c-1.2,0-2.2,0.6-2.8,1.6c-0.8,1.3-1.2,2.8-1.1,4.4v8.4h-2.6
			v-16.5h2.6v3.4h0.1c0.3-1.1,0.9-2,1.7-2.7c0.7-0.6,1.6-1,2.6-1c0.5,0,1.1,0.1,1.6,0.2L138.9,188z M153.9,179.7
			c-0.5-0.3-1.1-0.4-1.8-0.4c-1.8,0-2.8,1.2-2.8,3.5v2.5h3.9v2.3h-3.9v14.2h-2.6v-14.2h-2.8v-2.3h2.8v-2.7c-0.1-1.5,0.5-3,1.5-4.1
			c1-1,2.3-1.5,3.7-1.5c0.7,0,1.3,0.1,1.9,0.3L153.9,179.7z M166.8,202.2c-2.2,0.1-4.3-0.7-5.8-2.3c-1.5-1.7-2.3-3.9-2.2-6.1
			c-0.1-2.4,0.7-4.7,2.3-6.5c1.6-1.6,3.9-2.5,6.1-2.3c2.2-0.1,4.3,0.7,5.8,2.3c1.5,1.8,2.2,4,2.1,6.3c0.1,2.3-0.7,4.6-2.2,6.3
			C171.2,201.4,169.1,202.3,166.8,202.2z M167,187.1c-1.5-0.1-3,0.6-4,1.7c-1.1,1.4-1.6,3.1-1.5,4.8c-0.1,1.7,0.4,3.3,1.5,4.6
			c1,1.1,2.5,1.8,4,1.7c1.5,0.1,3-0.5,3.9-1.7c1-1.4,1.5-3,1.4-4.7c0.1-1.7-0.4-3.4-1.4-4.8C170,187.7,168.5,187,167,187.1z
			 M191.8,188c-0.6-0.4-1.3-0.6-2-0.5c-1.2,0-2.2,0.6-2.8,1.6c-0.8,1.3-1.2,2.8-1.1,4.3v8.4h-2.6v-16.5h2.6v3.4h0.1
			c0.3-1.1,0.9-2,1.7-2.7c0.7-0.6,1.6-1,2.6-1c0.5,0,1.1,0.1,1.6,0.2L191.8,188z M216.2,200.2c-2.4,1.3-5,2-7.7,2
			c-3,0.1-5.9-1-8-3.2c-2.1-2.3-3.2-5.3-3.1-8.4c-0.1-3.3,1.1-6.5,3.4-8.8c2.3-2.3,5.4-3.5,8.6-3.4c2.2-0.1,4.3,0.4,6.3,1.2v3
			c-2-1.2-4.3-1.8-6.6-1.8c-2.4-0.1-4.7,0.9-6.4,2.7c-1.7,1.9-2.6,4.4-2.5,6.9c-0.1,2.5,0.7,5,2.3,6.9c1.6,1.7,3.9,2.6,6.3,2.5
			c1.6,0,3.2-0.3,4.7-1.1v-6.5h-5.1v-2.4h7.8L216.2,200.2z M233.7,188c-0.6-0.4-1.3-0.6-2-0.5c-1.2,0-2.2,0.6-2.8,1.6
			c-0.8,1.3-1.2,2.8-1.1,4.3v8.4h-2.6v-16.5h2.6v3.4h0.1c0.3-1.1,0.9-2,1.7-2.7c0.7-0.6,1.6-1,2.6-1c0.5,0,1.1,0.1,1.6,0.2
			L233.7,188z M247.3,202.2c-2.2,0.1-4.3-0.7-5.8-2.3c-1.5-1.7-2.3-3.9-2.2-6.1c-0.1-2.4,0.7-4.7,2.3-6.5c1.6-1.6,3.9-2.5,6.1-2.3
			c2.2-0.1,4.3,0.7,5.8,2.3c1.5,1.8,2.2,4,2.1,6.3c0.1,2.3-0.7,4.6-2.2,6.3C251.7,201.4,249.6,202.3,247.3,202.2z M247.5,187.1
			c-1.5-0.1-3,0.6-4,1.7c-1.1,1.4-1.6,3.1-1.5,4.8c-0.1,1.7,0.4,3.3,1.5,4.6c1,1.1,2.5,1.8,4,1.7c1.5,0.1,3-0.5,3.9-1.7
			c1-1.4,1.5-3,1.4-4.7c0.1-1.7-0.4-3.4-1.4-4.8C250.5,187.7,249,187,247.5,187.1L247.5,187.1z M284.4,185.3l-4.9,16.5h-2.7
			l-3.4-11.8c-0.1-0.5-0.2-1-0.3-1.5H273c-0.1,0.5-0.2,1-0.3,1.5l-3.7,11.8h-2.6l-5-16.5h2.8l3.4,12.4c0.1,0.5,0.2,1,0.2,1.5h0.1
			c0-0.5,0.1-1,0.3-1.5l3.8-12.4h2.4l3.4,12.4c0.1,0.5,0.2,1,0.2,1.5h0.1c0-0.5,0.1-1,0.3-1.5l3.4-12.4H284.4z M299.1,201.6
			c-0.8,0.4-1.6,0.6-2.5,0.5c-2.9,0-4.3-1.6-4.3-4.8v-9.8h-2.8v-2.3h2.8v-4l2.6-0.9v4.9h4.2v2.3h-4.2v9.3c-0.1,0.8,0.1,1.7,0.6,2.4
			c0.5,0.5,1.2,0.8,1.9,0.7c0.6,0,1.2-0.2,1.7-0.5L299.1,201.6z M320.2,201.8h-2.6v-9.5c0-3.4-1.3-5.2-3.8-5.2
			c-1.3,0-2.4,0.5-3.3,1.5c-0.9,1.1-1.4,2.4-1.3,3.8v9.3h-2.6v-24.4h2.6V188h0.1c1.1-2,3.2-3.2,5.4-3.1c3.7,0,5.6,2.2,5.6,6.7
			L320.2,201.8z"/>
		<path id="Path_2" class="st1" d="M225,159.5c-0.8-0.8-1.2-2-1.2-3.1v-78c0-1.2,0.4-2.3,1.2-3.1c1.7-1.6,4.3-1.6,6,0
			c0.1,0.1,0.2,0.2,0.3,0.3l51.4,69.7V78.4c0-1.2,0.4-2.3,1.2-3.1c0.8-0.8,1.8-1.2,3-1.2c1.1,0,2.2,0.4,3,1.2c0.8,0.8,1.2,2,1.2,3.1
			v78c0,1.1-0.4,2.2-1.2,3.1c-0.8,0.8-1.9,1.3-3,1.3c-1.2,0.1-2.4-0.4-3.1-1.4l-51.5-69.7v66.8c0,1.1-0.4,2.2-1.2,3.1
			c-0.8,0.8-1.9,1.3-3,1.3C226.9,160.7,225.8,160.3,225,159.5"/>
		<path id="Path_3" class="st1" d="M361.5,101.2c0.8,0.8,1.2,1.9,1.2,3.1v52.1c0,1.2-0.4,2.3-1.2,3.1c-0.8,0.8-1.9,1.3-3,1.2
			c-1.1,0-2.2-0.4-3-1.2c-0.8-0.8-1.2-2-1.1-3.1v-3.8c-2.4,2.7-5.3,4.9-8.6,6.4c-3.4,1.6-7.2,2.4-11,2.3c-4.8,0.1-9.5-1.1-13.7-3.3
			c-4.1-2.2-7.4-5.6-9.5-9.7c-2.4-4.7-3.6-10-3.4-15.3v-28.8c0-1.1,0.4-2.2,1.2-3c0.8-0.8,1.8-1.2,2.9-1.2c1.1,0,2.2,0.4,3,1.2
			c0.8,0.8,1.2,1.9,1.2,3v28.8c0,6.6,1.8,11.6,5.3,15s8.2,5.2,13.9,5.2c3.3,0,6.5-0.7,9.5-2.1c2.7-1.3,5-3.3,6.7-5.8
			c1.6-2.4,2.5-5.3,2.5-8.3v-32.8c0-1.1,0.4-2.2,1.1-3.1c0.8-0.8,1.8-1.2,3-1.2C359.6,100,360.7,100.4,361.5,101.2"/>
		<path id="Path_4" class="st1" d="M391.1,157.2c-4.4-2.7-8.1-6.5-10.5-11.1c-2.6-4.8-3.9-10.2-3.8-15.7c-0.1-5.5,1.2-11,3.7-15.9
			c2.3-4.5,5.8-8.4,10.1-11c4.4-2.7,9.4-4.1,14.5-4c8.6-0.2,16.7,3.8,21.8,10.7c0.6,0.6,0.9,1.5,0.9,2.3c-0.1,1.3-0.7,2.4-1.8,3.1
			c-0.6,0.4-1.3,0.7-2,0.7c-1.2-0.1-2.4-0.7-3.1-1.7c-2-2.3-4.4-4.2-7.1-5.5c-2.7-1.2-5.6-1.9-8.6-1.8c-7.6-0.2-14.6,4.3-17.7,11.2
			c-1.7,3.8-2.6,7.8-2.5,12c-0.1,4.1,0.9,8.1,2.7,11.8c3.5,7.1,10.7,11.4,18.6,11.3c5.7,0,10.4-1.6,13.9-4.8
			c0.8-0.8,1.8-1.2,2.9-1.2c0.9,0,1.7,0.3,2.4,0.9c0.9,0.7,1.5,1.8,1.5,3c0,0.9-0.4,1.8-1.1,2.4c-5.2,5-11.7,7.4-19.6,7.4
			C400.8,161.3,395.6,159.9,391.1,157.2"/>
		<path id="Path_5" class="st1" d="M446,155.3c-2.8-3.6-4.1-8.2-4.1-13.8V78.3c0-1.1,0.4-2.2,1.2-3.1c0.8-0.8,1.8-1.2,2.9-1.2
			c1.1,0,2.2,0.4,3,1.2c0.8,0.8,1.2,1.9,1.1,3.1v63.2c-0.1,2.7,0.5,5.4,1.9,7.8c0.9,1.8,2.8,2.9,4.8,3h2.7c1,0,1.9,0.4,2.6,1.2
			c0.7,0.9,1,2,1,3.1c0,1.2-0.5,2.3-1.3,3.1c-1,0.8-2.2,1.2-3.5,1.2h-1.4C452.4,160.8,448.4,158.8,446,155.3"/>
		<path id="Path_6" class="st1" d="M511.5,103.3c4.1,2.6,7.4,6.2,9.5,10.6c2.3,4.8,3.5,10.1,3.4,15.4c0.1,2-1.4,3.8-3.4,3.9
			c-0.1,0-0.3,0-0.4,0h-43.4c0.4,5.6,2.8,10.9,6.9,14.8c4.1,3.8,9.5,5.8,15,5.7c2.7,0,5.3-0.5,7.8-1.4c2.3-0.7,4.4-1.9,6.3-3.5
			c0.8-0.7,1.8-1.1,2.9-1.1c0.9,0,1.7,0.3,2.4,0.9c0.9,0.8,1.4,1.8,1.4,3c0,1-0.4,1.9-1.2,2.6c-2.7,2.3-5.7,4-9,5.2
			c-8.5,3.3-18,2.6-25.9-1.9c-4.5-2.6-8.2-6.4-10.6-11c-2.6-4.9-3.9-10.4-3.8-15.9c-0.1-5.6,1.1-11.1,3.6-16
			c4.6-9.3,14.2-15.2,24.6-14.9C502.4,99.4,507.2,100.7,511.5,103.3 M483.9,112.3c-3.7,3.7-6,8.6-6.6,13.8h39.3
			c-0.6-5.7-2.6-10.3-6-13.8c-3.5-3.5-8.3-5.4-13.2-5.2C492.4,107,487.5,108.8,483.9,112.3"/>
		<path id="Path_7" class="st1" d="M588.4,101.2c0.8,0.8,1.2,1.9,1.2,3.1v52.1c0,1.2-0.4,2.3-1.2,3.1c-0.8,0.8-1.9,1.3-3,1.2
			c-1.1,0-2.2-0.4-3-1.2c-0.8-0.8-1.2-2-1.1-3.1v-3.8c-2.4,2.7-5.3,4.9-8.6,6.4c-3.4,1.6-7.2,2.4-11,2.3c-4.8,0.1-9.5-1.1-13.7-3.3
			c-4.1-2.2-7.4-5.6-9.5-9.7c-2.4-4.7-3.6-10-3.4-15.3v-28.8c0-1.1,0.4-2.2,1.2-3c0.8-0.8,1.8-1.2,2.9-1.2c1.1,0,2.2,0.4,3,1.2
			c0.8,0.8,1.2,1.9,1.2,3v28.8c0,6.6,1.8,11.6,5.3,15c3.5,3.4,8.2,5.2,13.9,5.2c3.3,0,6.5-0.7,9.5-2.1c2.7-1.3,5-3.3,6.7-5.8
			c1.6-2.4,2.5-5.3,2.5-8.3v-32.8c0-1.1,0.4-2.2,1.1-3.1c0.8-0.8,1.9-1.2,3-1.2C586.5,100,587.6,100.4,588.4,101.2"/>
		<path id="Path_8" class="st1" d="M614.5,158.9c-3.8-1.3-7.2-3.6-9.9-6.5c-0.6-0.7-1-1.6-1.1-2.6c0-1.3,0.7-2.5,1.7-3.3
			c0.8-0.6,1.7-1,2.7-1c1.2,0,2.4,0.6,3.1,1.6c1.8,2.1,4.2,3.8,6.8,4.8c3,1.1,6.2,1.7,9.4,1.7c5,0,8.8-0.9,11.3-2.7
			c2.4-1.5,3.8-4.2,3.9-7c0-2.7-1.4-5.2-3.8-6.7c-2.5-1.8-6.5-3.1-11.9-4c-7-1.2-12.3-3.2-15.7-6.2c-3.3-2.5-5.2-6.4-5.2-10.6
			c0-5.4,2-9.6,6.1-12.5c4-3,9.1-4.4,15.2-4.4c4.3-0.1,8.5,0.8,12.4,2.5c3.4,1.6,6.3,3.9,8.5,6.9c0.5,0.8,0.8,1.6,0.9,2.6
			c0,1.2-0.6,2.4-1.7,3c-0.6,0.4-1.3,0.6-2,0.6c-1.4,0-2.8-0.6-3.8-1.7c-3.5-4.1-8.3-6.2-14.4-6.2c-3.9,0-7.1,0.8-9.5,2.5
			c-3.5,2.2-4.6,6.9-2.4,10.4c0.6,0.9,1.3,1.7,2.2,2.3c2.2,1.6,6.2,2.9,11.8,3.8c7.7,1.3,13.1,3.5,16.4,6.5c3.2,2.8,5,6.9,4.9,11.1
			c0,3.3-1,6.5-3,9.1c-2.1,2.8-5,4.9-8.2,6.2c-3.8,1.5-7.8,2.3-11.9,2.2C623,161.3,618.6,160.5,614.5,158.9"/>
		<path id="Path_9" class="st3" d="M751.7,17.1c-0.1-2.2-0.6-4.4-1.4-6.5c-0.8-2.1-2-4.1-3.6-5.7c-1.6-1.6-3.6-2.8-5.7-3.6
			c-2.1-0.8-4.3-1.2-6.5-1.3c-4.4-0.1-8.8,0.3-13,1.3C679.8,9.8,619.8,65.3,619.8,65c0.1,0.2,0.1,0.3,0.2,0.5
			c4.1-2.7,56.1-51.2,101.7-63c4.1-1.1,8.4-1.5,12.7-1.2c2.1,0.1,4.2,0.6,6.1,1.3c1.9,0.7,3.7,1.8,5.2,3.3c1.4,1.5,2.5,3.3,3.2,5.2
			c0.7,2,1.1,4,1.2,6.1c0.2,4.2-0.3,8.5-1.3,12.6c-0.8,3.3-1.8,6.6-2.9,9.8l0,0c-1.3,3.2-2.7,6.3-4.2,9.4C734.3,64.5,725,79,715,93
			c-10,14-20.8,27.5-32,40.5s-23,25.6-35.2,37.8s-24.8,24-37.8,35.2s-26.5,22-40.5,32c-14,10-28.5,19.3-44,26.8
			c-3.9,1.9-7.8,3.6-11.8,5.1c-4,1.5-8.1,2.8-12.2,3.8c-4.1,1-8.4,1.4-12.6,1.3c-2.1-0.1-4.1-0.5-6.1-1.2c-4-1.4-7.1-4.5-8.5-8.4
			c-0.7-2-1.2-4-1.3-6.1c-0.2-4.3,0.2-8.5,1.2-12.7c0.9-4.2,2.2-8.3,3.7-12.3c1.5-4,3.2-8,5-11.9c3.7-7.8,7.8-15.4,12.3-22.7
			c3.3-5.5,6.7-10.8,10.3-16.1c-0.1,0-0.2-0.1-0.3-0.1l-0.1,0c-8.6,12.2-16.3,25.1-23,38.5c-1.9,3.9-3.6,7.9-5.2,11.9
			c-1.6,4-2.9,8.2-3.9,12.4c-1,4.3-1.5,8.6-1.3,13c0.1,2.2,0.6,4.4,1.3,6.5c1.5,4.3,4.9,7.8,9.2,9.3c2.1,0.8,4.3,1.2,6.5,1.4
			c4.4,0.2,8.8-0.2,13.1-1.2c4.2-1,8.4-2.2,12.5-3.7c4.1-1.5,8.1-3.2,12-5.1c7.8-3.7,15.5-7.8,22.9-12.4c7.4-4.5,14.6-9.2,21.7-14.2
			c28.3-20,54.4-42.8,78.9-67.2c24.4-24.5,47.3-50.6,67.2-78.9c5-7.1,9.7-14.3,14.2-21.7c4.5-7.4,8.6-15,12.4-22.9
			c1.3-2.8,2.6-5.7,3.7-8.6l0,0c0.1-0.2,0.1-0.4,0.2-0.6c0-0.1,0.1-0.2,0.1-0.3l0,0c1.2-3.3,2.1-6.7,2.9-10.1
			C751.5,25.9,751.9,21.5,751.7,17.1"/>
		<path id="Path_10" class="st2" d="M754.7,15.6c-1.9-1.9-5-1.9-6.8,0c-1.9,1.9-1.9,5,0,6.8c1.9,1.9,5,1.9,6.8,0c0,0,0,0,0,0
			C756.6,20.6,756.6,17.5,754.7,15.6"/>
	</g>
</g>
</svg>
