<?xml version="1.0" encoding="utf-8"?>
<!-- Generator: Adobe Illustrator 15.1.0, SVG Export Plug-In . SVG Version: 6.00 Build 0)  -->
<!DOCTYPE svg PUBLIC "-//W3C//DTD SVG 1.1//EN" "http://www.w3.org/Graphics/SVG/1.1/DTD/svg11.dtd" [
	<!ENTITY ns_flows "http://ns.adobe.com/Flows/1.0/">
	<!ENTITY ns_extend "http://ns.adobe.com/Extensibility/1.0/">
	<!ENTITY ns_ai "http://ns.adobe.com/AdobeIllustrator/10.0/">
	<!ENTITY ns_graphs "http://ns.adobe.com/Graphs/1.0/">
	<!ENTITY ns_vars "http://ns.adobe.com/Variables/1.0/">
	<!ENTITY ns_imrep "http://ns.adobe.com/ImageReplacement/1.0/">
	<!ENTITY ns_sfw "http://ns.adobe.com/SaveForWeb/1.0/">
	<!ENTITY ns_custom "http://ns.adobe.com/GenericCustomNamespace/1.0/">
	<!ENTITY ns_adobe_xpath "http://ns.adobe.com/XPath/1.0/">
]>
<svg version="1.1"
	 xmlns:x="&ns_extend;" xmlns:i="&ns_ai;" xmlns:graph="&ns_graphs;" i:viewOrigin="-18.1484 31.856" i:rulerOrigin="18.1484 4.8555" i:pageBounds="-18.1484 31.856 119.1484 -4.8555"
	 xmlns="http://www.w3.org/2000/svg" xmlns:xlink="http://www.w3.org/1999/xlink" xmlns:a="http://ns.adobe.com/AdobeSVGViewerExtensions/3.0/"
	 x="0px" y="0px" width="137.297px" height="36.711px" viewBox="0 0 137.297 36.711" enable-background="new 0 0 137.297 36.711"
	 xml:space="preserve">
<metadata>
	<variableSets  xmlns="&ns_vars;">
		<variableSet  locked="none" varSetName="binding1">
			<variables></variables>
			<v:sampleDataSets  xmlns:v="&ns_vars;" xmlns="&ns_custom;"></v:sampleDataSets>
		</variableSet>
	</variableSets>
	<sfw  xmlns="&ns_sfw;">
		<slices></slices>
		<sliceSourceBounds  width="136.697" height="23.276" x="-17.547" y="1.58" bottomLeftOrigin="true"></sliceSourceBounds>
	</sfw>
</metadata>
<g id="Group_1153" i:layer="yes" i:dimmedPercent="50" i:rgbTrio="#4F008000FFFF">
	<path id="Path_5624" d="M5.387,7.644H0.601v21.722h5.318L5.8,16.274l8.312,13.092h4.819V7.644h-5.319l0.121,13.239L5.387,7.644z
		 M38.819,22.911c0.51-2.818-0.339-5.713-2.291-7.811c-1.606-1.683-3.841-2.618-6.167-2.58c-4.8,0.025-8.671,3.937-8.647,8.736
		c0.025,4.801,3.937,8.672,8.737,8.647c1.663,0.009,3.286-0.507,4.639-1.474c1.479-1.047,2.631-2.492,3.319-4.168h-4.992
		c-0.638,1.01-1.773,1.594-2.966,1.525c-1.804,0.141-3.425-1.098-3.763-2.875L38.819,22.911z M26.747,19.211
		c0.706-2.013,2.909-3.072,4.921-2.366c1.107,0.388,1.978,1.259,2.366,2.366H26.747z M40.907,21.211
		c0.007,4.773,3.884,8.639,8.659,8.631s8.639-3.885,8.631-8.659c-0.007-4.774-3.884-8.639-8.659-8.631
		c-4.764,0.008-8.624,3.868-8.631,8.631V21.211z M45.782,21.211c0.007-2.265,1.85-4.094,4.114-4.086s4.094,1.85,4.086,4.113
		c-0.008,2.265-1.85,4.094-4.114,4.086c-2.254-0.008-4.079-1.832-4.086-4.086V21.211z"/>
	<path id="Path_5625" fill="#E82629" d="M60.199,22.178c-0.147,4.257,2.144,7.609,7.842,7.609c5.759,0,7.578-3.5,7.578-6.963
		c0-2.527-1.027-4.408-5.08-6.226c-3.909-1.759-4.495-2.025-4.495-3.023c0.06-0.996,0.913-1.755,1.908-1.7
		c1.704,0,1.881,1.381,2,2.115h5.493c-0.086-5.224-4.318-6.75-7.313-6.75c-3.644,0-7.609,2.318-7.609,6.69
		c0,4.081,3.79,5.606,5.317,6.224c3.35,1.409,4.262,1.762,4.262,2.908c-0.008,1.16-0.955,2.092-2.115,2.084
		c-0.707,0-2.264-0.441-2.264-2.965L60.199,22.178z M77.322,18.772c0.008,6.362,5.173,11.514,11.535,11.504
		c6.362-0.008,11.514-5.172,11.504-11.535c-0.008-6.362-5.173-11.513-11.535-11.504c-6.35,0.009-11.496,5.154-11.504,11.504V18.772z
		 M82.875,18.452c0-3.053,2.087-6.343,5.934-6.343c3.994,0,5.9,3.611,5.9,6.429c0,2.789-1.909,6.368-5.844,6.368
		c-3.731,0-5.993-3.112-5.993-6.428L82.875,18.452z M103.26,29.37h5.553v-8.277h6.082v-4.873h-6.082v-3.7h6.317v-4.87h-11.87V29.37z
		 M120.736,29.37h5.55V12.52h4.262V7.649h-14.101v4.874h4.289V29.37z"/>
	<path id="Path_5627" d="M134.506,7c-1.543,0-2.793,1.25-2.794,2.792s1.249,2.793,2.792,2.794s2.793-1.25,2.794-2.792
		c0,0,0-0.001,0-0.002C137.299,8.25,136.049,7,134.508,7C134.508,7,134.507,7,134.506,7 M134.506,12.132
		c-1.291,0-2.338-1.048-2.338-2.34s1.049-2.338,2.34-2.338s2.338,1.047,2.338,2.338C136.846,11.084,135.799,12.132,134.506,12.132
		L134.506,12.132"/>
	<path id="Path_5628" d="M133.725,8.468c0.225-0.039,0.451-0.057,0.678-0.055c0.267-0.024,0.533,0.044,0.756,0.194
		c0.143,0.126,0.221,0.31,0.213,0.5c0,0.28-0.182,0.529-0.448,0.614v0.012c0.187,0.09,0.314,0.268,0.341,0.473
		c0.055,0.232,0.121,0.461,0.199,0.686h-0.46c-0.075-0.187-0.13-0.381-0.165-0.58c-0.074-0.32-0.186-0.424-0.441-0.43h-0.224v1.01
		h-0.442L133.725,8.468z M134.168,9.553h0.264c0.301,0,0.49-0.163,0.49-0.407c0-0.266-0.186-0.394-0.479-0.394
		c-0.092-0.001-0.184,0.005-0.275,0.021V9.553z"/>
</g>
</svg>
