<?xml version="1.0" encoding="utf-8"?>
<!-- Generator: Adobe Illustrator 24.0.1, SVG Export Plug-In . SVG Version: 6.00 Build 0)  -->
<svg version="1.1" id="Layer_1" xmlns="http://www.w3.org/2000/svg" xmlns:xlink="http://www.w3.org/1999/xlink" x="0px" y="0px"
	 viewBox="0 0 120.8 59.6" style="enable-background:new 0 0 120.8 59.6;" xml:space="preserve">
<style type="text/css">
	.st0{fill:#636363;}
</style>
<g id="Group_2275" transform="translate(58.047 56.636)">
	<g id="Group_2272" transform="translate(26.033 14.707)">
		<path id="Path_1686" class="st0" d="M-39.9-48.5l-3.7,11.8c1.2,0.5,2.5,0.6,3.9,0.6c1.2,0,2.5-0.2,3.7-0.6L-39.9-48.5L-39.9-48.5z
			"/>
	</g>
	<g id="Group_2273" transform="translate(44.945 12.226)">
		<path id="Path_1687" class="st0" d="M-30.7-49.9h-2.5v9.6h2.6c3.4,0,6.2-1.1,6.2-4.8C-24.3-48.8-27.1-49.9-30.7-49.9z"/>
	</g>
	<g id="Group_2274" transform="translate(0 0)">
		<path id="Path_1688" class="st0" d="M-58-56.6V3H3l59.8-59.6H-58z M15.6-20h-3.9v11.3H-5.9l-1.7-5.4c-4,1.2-8.5,1.2-12.6,0
			L-22-8.6h-10.9l1.2-3.1c-0.2,0.2-0.3,0.3-0.5,0.3c-3,2.3-6.5,3.4-10.3,3.4H-43c-4.7,0-9.3-1.2-13.5-3.6l3.7-7.3c3,2,6.4,3,9.8,2.8
			c1.4,0.2,2.8-0.3,3.9-1.2c0.5-0.5,0.8-1.1,0.8-1.9c0-1.9-2.6-2.8-5.9-3.9c-3-0.8-5.6-2-8.1-3.7c-2.8-1.9-4.3-5-4-8.2
			c0-2.6,1.1-5.1,2.8-7c3.3-3,7.5-4.5,12-4.3l0,0c4.7,0,9.3,1.1,13.5,3.1l-4.2,7.1c-2.6-1.4-5.6-2.3-8.7-2.3
			c-3.6-0.2-5.4,1.1-5.4,2.5c0,1.7,3.4,3.1,6.5,4.2c4.8,1.6,11,3.6,12,9.5l8.9-23.6h10.3L1.6-17.7v-28.3h12c11.3,0,16.8,4,16.8,12.9
			C30.3-24.6,24.7-20,15.6-20L15.6-20z"/>
	</g>
</g>
</svg>
