<?xml version="1.0" encoding="utf-8"?>
<!-- Generator: Adobe Illustrator 26.0.1, SVG Export Plug-In . SVG Version: 6.00 Build 0)  -->
<svg version="1.1" id="Layer_1" xmlns="http://www.w3.org/2000/svg" xmlns:xlink="http://www.w3.org/1999/xlink" x="0px" y="0px"
	 viewBox="0 0 290.6 93.1" style="enable-background:new 0 0 290.6 93.1;" xml:space="preserve">
<style type="text/css">
	.st0{enable-background:new    ;}
	.st1{fill:#FFFFFF;}
	.st2{fill:#E11129;}
</style>
<g>
	<g>
		<g class="st0">
			<path class="st1" d="M6.1,73.1l8.4-4.9c1.5,3.5,4.1,5.9,8.9,5.9c4.6,0,5.8-1.8,5.8-3.5c0-2.6-2.4-3.7-8.8-5.4
				c-6.3-1.8-12.5-4.8-12.5-13c0-8.2,6.9-13,14.3-13c7,0,12.5,3.3,15.6,9.6l-8.2,4.8c-1.5-3-3.5-4.9-7.4-4.9c-3,0-4.6,1.5-4.6,3.2
				c0,1.9,1,3.3,7.7,5.3C31.7,59.3,39,61.6,39,70.6c0,8.2-6.6,13.1-15.8,13.1C14.2,83.7,8.5,79.4,6.1,73.1z"/>
			<path class="st1" d="M70.4,49.6h-11v33.2h-9.7V49.6h-11v-9.4h31.7V49.6z"/>
			<path class="st1" d="M95.9,76.1H80.1L78,82.8H67.3l14.5-42.6h12.4l14.5,42.6H98.1L95.9,76.1z M93,67l-5-15.6L83,67H93z"/>
			<path class="st1" d="M126.1,68.8h-4.6v14h-9.7V40.2h17c8.1,0,14.6,6.5,14.6,14.6c0,5.2-3.2,10-7.9,12.4l9.1,15.6h-10.5
				L126.1,68.8z M121.5,60.3h7.3c2.7,0,4.9-2.4,4.9-5.5c0-3.1-2.2-5.5-4.9-5.5h-7.3V60.3z"/>
			<path class="st1" d="M176.3,49.6h-11v33.2h-9.7V49.6h-11v-9.4h31.7V49.6z"/>
		</g>
		<g>
			<g>
				<path class="st1" d="M252,73.1l8.4-4.9c1.5,3.5,4.1,5.9,9,5.9c4.6,0,5.8-1.8,5.8-3.5c0-2.6-2.4-3.7-8.8-5.4
					c-6.3-1.8-12.5-4.8-12.5-13c0-8.2,6.9-13,14.3-13c7,0,12.5,3.3,15.6,9.6l-8.2,4.8c-1.5-3-3.5-4.9-7.4-4.9c-3,0-4.6,1.5-4.6,3.2
					c0,1.9,1,3.3,7.7,5.3c6.5,1.9,13.7,4.2,13.7,13.2c0,8.2-6.6,13.1-15.8,13.1C260.1,83.7,254.4,79.4,252,73.1z"/>
			</g>
		</g>
		<g>
			<path class="st2" d="M214.2,19.3h7.6L209.7,5.8l-12.1,13.4h6.8v20.1h0v28c0,3.2-1.5,6-6.7,6c-5.2,0-6.7-2.7-6.7-6V41
				c0,0-0.1,0-0.1,0c-6.7-0.3-8.9,3.1-9.6,5.8v21.3c0,9.1,7.1,14.6,16.4,14.6c9.4,0,16.4-5.5,16.4-14.6V49.6l0,0V19.3z"/>
			<path class="st2" d="M234.4,39.3h-16.1v34.5c1.2,3.1,3.7,7,9,7.1c0.3,0,0.5,0,0.7,0V68.6h6.4c8.4,0,14.9-6.5,14.9-14.6
				C249.3,45.9,242.8,39.3,234.4,39.3z M234.4,59.4H228v-11h6.4c3,0,5.2,2.4,5.2,5.5C239.6,57.1,237.4,59.4,234.4,59.4z"/>
		</g>
	</g>
	<g class="st0">
		<path class="st1" d="M11.5,32.5v-8.3h2.8c0.8,0,1.6,0.2,2.2,0.6c0.7,0.4,1.2,0.9,1.5,1.5c0.3,0.6,0.5,1.3,0.5,2.1
			c0,0.6-0.1,1.1-0.3,1.6c-0.2,0.5-0.5,0.9-0.9,1.3c-0.4,0.4-0.8,0.7-1.3,0.9c-0.5,0.2-1.1,0.3-1.8,0.3H11.5z M12.5,31.6h1.8
			c0.7,0,1.2-0.1,1.7-0.4c0.5-0.3,0.9-0.7,1.1-1.2c0.2-0.5,0.4-1,0.4-1.6c0-0.6-0.1-1.2-0.4-1.6c-0.2-0.5-0.6-0.9-1.1-1.2
			c-0.5-0.3-1.1-0.4-1.7-0.4h-1.8V31.6z"/>
		<path class="st1" d="M20.2,32.5v-8.3h1v8.3H20.2z"/>
		<path class="st1" d="M23.2,30.1c-0.2-0.5-0.3-1.1-0.3-1.8c0-0.6,0.1-1.2,0.3-1.8c0.2-0.5,0.5-1,0.9-1.4c0.4-0.4,0.8-0.7,1.4-0.9
			c0.5-0.2,1.1-0.3,1.7-0.3c1.3,0,2.4,0.5,3.2,1.5l-0.8,0.5c-0.3-0.3-0.6-0.6-1-0.8c-0.4-0.2-0.9-0.3-1.4-0.3
			c-0.9,0-1.7,0.3-2.3,0.9c-0.6,0.6-0.9,1.4-0.9,2.4c0,0.6,0.1,1.2,0.4,1.8c0.3,0.5,0.7,0.9,1.2,1.2c0.5,0.3,1,0.4,1.6,0.4
			c0.5,0,0.9-0.1,1.3-0.3c0.4-0.2,0.7-0.4,1-0.6v-1.7h-2.8v-0.9h3.9v3C30,31.7,29.5,32,29,32.3c-0.6,0.3-1.2,0.4-1.8,0.4
			c-0.6,0-1.1-0.1-1.7-0.3c-0.5-0.2-1-0.5-1.4-0.9C23.7,31.1,23.4,30.7,23.2,30.1z"/>
		<path class="st1" d="M32.1,32.5v-8.3h1v8.3H32.1z"/>
		<path class="st1" d="M34.5,25.1v-0.9h6.3v0.9h-2.6v7.4h-1v-7.4H34.5z"/>
		<path class="st1" d="M41.3,32.5l3.4-8.3H46l3.3,8.3h-1.2l-0.7-1.8h-4.1l-0.7,1.8H41.3z M43.5,29.7h3.5l-1.8-4.5L43.5,29.7z"/>
		<path class="st1" d="M50.2,32.5v-8.3h1v7.4h3.9v0.9H50.2z"/>
		<path class="st1" d="M58.9,32.5l3.4-8.3h1.3l3.3,8.3h-1.2l-0.7-1.8h-4.1l-0.7,1.8H58.9z M61.1,29.7h3.5l-1.8-4.5L61.1,29.7z"/>
		<path class="st1" d="M67.9,30.1c-0.2-0.5-0.3-1.1-0.3-1.7s0.1-1.2,0.3-1.7c0.2-0.5,0.5-1,0.9-1.4c0.4-0.4,0.8-0.7,1.4-0.9
			c0.5-0.2,1.1-0.3,1.7-0.3c1.3,0,2.4,0.5,3.2,1.6l-0.9,0.5c-0.2-0.4-0.6-0.7-1-0.9S72.3,25,71.9,25c-0.9,0-1.7,0.3-2.3,0.9
			c-0.6,0.6-0.9,1.4-0.9,2.4c0,0.6,0.1,1.2,0.4,1.7c0.3,0.5,0.7,0.9,1.2,1.2c0.5,0.3,1,0.4,1.6,0.4c0.5,0,0.9-0.1,1.3-0.3
			c0.4-0.2,0.7-0.5,1-0.9L75,31c-0.8,1.1-1.9,1.7-3.2,1.7c-0.6,0-1.2-0.1-1.7-0.3c-0.5-0.2-1-0.5-1.4-0.9
			C68.5,31.1,68.2,30.6,67.9,30.1z"/>
		<path class="st1" d="M76.4,30.1C76.1,29.6,76,29,76,28.4s0.1-1.2,0.3-1.7c0.2-0.5,0.5-1,0.9-1.4c0.4-0.4,0.8-0.7,1.4-0.9
			c0.5-0.2,1.1-0.3,1.7-0.3c1.3,0,2.4,0.5,3.2,1.6l-0.9,0.5c-0.2-0.4-0.6-0.7-1-0.9S80.8,25,80.3,25c-0.9,0-1.7,0.3-2.3,0.9
			c-0.6,0.6-0.9,1.4-0.9,2.4c0,0.6,0.1,1.2,0.4,1.7c0.3,0.5,0.7,0.9,1.2,1.2s1,0.4,1.6,0.4c0.5,0,0.9-0.1,1.3-0.3
			c0.4-0.2,0.7-0.5,1-0.9l0.9,0.5c-0.8,1.1-1.9,1.7-3.2,1.7c-0.6,0-1.2-0.1-1.7-0.3c-0.5-0.2-1-0.5-1.4-0.9
			C76.9,31.1,76.6,30.6,76.4,30.1z"/>
		<path class="st1" d="M84.8,32.5v-8.3h5.4v0.9h-4.4v2.7h4.3v0.9h-4.3v2.9h4.4v0.9H84.8z"/>
		<path class="st1" d="M91.7,32.5v-8.3h1v7.4h3.9v0.9H91.7z"/>
		<path class="st1" d="M98,32.5v-8.3h5.4v0.9h-4.4v2.7h4.3v0.9h-4.3v2.9h4.4v0.9H98z"/>
		<path class="st1" d="M105.1,32.5v-8.3h3.3c0.8,0,1.4,0.2,1.9,0.7s0.7,1.1,0.7,1.8c0,0.4-0.1,0.7-0.2,1c-0.1,0.3-0.3,0.6-0.5,0.8
			c-0.2,0.2-0.4,0.4-0.7,0.5c-0.3,0.1-0.5,0.2-0.8,0.2l2.2,3.4h-1.2l-2.1-3.3h-1.7v3.3H105.1z M106.2,28.3h2.2
			c0.5,0,0.9-0.1,1.2-0.4c0.3-0.3,0.5-0.7,0.5-1.2c0-0.5-0.2-0.9-0.5-1.1c-0.3-0.3-0.7-0.4-1.2-0.4h-2.2V28.3z"/>
		<path class="st1" d="M111.8,32.5l3.4-8.3h1.3l3.3,8.3h-1.2l-0.7-1.8h-4.1l-0.7,1.8H111.8z M114.1,29.7h3.5l-1.8-4.5L114.1,29.7z"
			/>
		<path class="st1" d="M120.3,25.1v-0.9h6.3v0.9H124v7.4h-1v-7.4H120.3z"/>
		<path class="st1" d="M128.2,30.6c-0.3-0.7-0.5-1.4-0.5-2.2c0-0.8,0.2-1.5,0.5-2.2c0.3-0.7,0.8-1.2,1.5-1.5
			c0.6-0.4,1.3-0.6,2.2-0.6c0.8,0,1.5,0.2,2.2,0.6c0.6,0.4,1.1,0.9,1.5,1.5c0.3,0.7,0.5,1.4,0.5,2.2c0,0.8-0.2,1.5-0.5,2.2
			c-0.3,0.7-0.8,1.2-1.5,1.5c-0.6,0.4-1.4,0.6-2.2,0.6c-0.8,0-1.5-0.2-2.2-0.6C129,31.7,128.5,31.2,128.2,30.6z M128.7,28.4
			c0,0.6,0.1,1.2,0.4,1.7c0.2,0.5,0.6,0.9,1.1,1.2c0.5,0.3,1,0.4,1.6,0.4c0.6,0,1.1-0.1,1.6-0.4c0.5-0.3,0.8-0.7,1.1-1.2
			c0.2-0.5,0.4-1.1,0.4-1.7c0-1-0.3-1.8-0.8-2.4c-0.6-0.6-1.3-1-2.2-1c-0.9,0-1.7,0.3-2.2,0.9C129,26.6,128.7,27.4,128.7,28.4z"/>
		<path class="st1" d="M137.5,32.5v-8.3h3.3c0.8,0,1.4,0.2,1.9,0.7s0.7,1.1,0.7,1.8c0,0.4-0.1,0.7-0.2,1c-0.1,0.3-0.3,0.6-0.5,0.8
			c-0.2,0.2-0.4,0.4-0.7,0.5c-0.3,0.1-0.5,0.2-0.8,0.2l2.2,3.4h-1.2l-2.1-3.3h-1.7v3.3H137.5z M138.6,28.3h2.2
			c0.5,0,0.9-0.1,1.2-0.4c0.3-0.3,0.5-0.7,0.5-1.2c0-0.5-0.2-0.9-0.5-1.1c-0.3-0.3-0.7-0.4-1.2-0.4h-2.2V28.3z"/>
		<path class="st1" d="M144.6,31.3l0.6-0.8c0.3,0.3,0.7,0.6,1.1,0.9c0.4,0.2,0.9,0.3,1.5,0.3c0.4,0,0.7,0,0.9-0.1
			c0.3-0.1,0.5-0.2,0.6-0.4c0.1-0.1,0.2-0.3,0.3-0.5c0.1-0.2,0.1-0.3,0.1-0.5c0-0.2-0.1-0.4-0.2-0.6c-0.1-0.2-0.3-0.3-0.5-0.4
			c-0.2-0.1-0.4-0.2-0.7-0.3c-0.2-0.1-0.5-0.1-0.8-0.2c-0.3-0.1-0.5-0.2-0.8-0.2c-0.3-0.1-0.5-0.2-0.8-0.3c-0.2-0.1-0.5-0.3-0.7-0.4
			c-0.2-0.2-0.3-0.4-0.5-0.6c-0.1-0.2-0.2-0.5-0.2-0.8c0-0.7,0.3-1.2,0.8-1.7c0.5-0.4,1.2-0.6,2.1-0.6c1.2,0,2.2,0.4,2.9,1.2
			l-0.6,0.8c-0.6-0.7-1.4-1-2.4-1c-0.5,0-0.9,0.1-1.2,0.4c-0.3,0.2-0.5,0.6-0.5,1c0,0.2,0.1,0.4,0.2,0.5c0.1,0.2,0.3,0.3,0.5,0.4
			c0.2,0.1,0.4,0.2,0.7,0.3c0.2,0.1,0.5,0.1,0.8,0.2c0.3,0.1,0.5,0.2,0.8,0.2c0.3,0.1,0.5,0.2,0.8,0.3c0.2,0.1,0.5,0.3,0.7,0.4
			c0.2,0.2,0.3,0.4,0.5,0.6c0.1,0.3,0.2,0.6,0.2,0.9c0,0.3-0.1,0.6-0.2,0.9c-0.1,0.3-0.3,0.5-0.5,0.8c-0.2,0.2-0.6,0.4-1,0.6
			c-0.4,0.1-0.9,0.2-1.4,0.2c-0.7,0-1.3-0.1-1.8-0.4C145.5,32.1,145,31.7,144.6,31.3z"/>
		<path class="st1" d="M155.7,32.5v-8.3h5.4v0.9h-4.4v2.7h4.3v0.9h-4.3v3.8H155.7z"/>
		<path class="st1" d="M162.7,30.6c-0.3-0.7-0.5-1.4-0.5-2.2c0-0.8,0.2-1.5,0.5-2.2c0.3-0.7,0.8-1.2,1.5-1.5
			c0.6-0.4,1.3-0.6,2.2-0.6c0.8,0,1.5,0.2,2.2,0.6c0.6,0.4,1.1,0.9,1.5,1.5c0.3,0.7,0.5,1.4,0.5,2.2c0,0.8-0.2,1.5-0.5,2.2
			c-0.3,0.7-0.8,1.2-1.5,1.5c-0.6,0.4-1.4,0.6-2.2,0.6c-0.8,0-1.5-0.2-2.2-0.6C163.5,31.7,163.1,31.2,162.7,30.6z M163.3,28.4
			c0,0.6,0.1,1.2,0.4,1.7c0.2,0.5,0.6,0.9,1.1,1.2c0.5,0.3,1,0.4,1.6,0.4c0.6,0,1.1-0.1,1.6-0.4c0.5-0.3,0.8-0.7,1.1-1.2
			c0.2-0.5,0.4-1.1,0.4-1.7c0-1-0.3-1.8-0.8-2.4c-0.6-0.6-1.3-1-2.2-1c-0.9,0-1.7,0.3-2.2,0.9C163.5,26.6,163.3,27.4,163.3,28.4z"/>
		<path class="st1" d="M172.1,32.5v-8.3h3.3c0.8,0,1.4,0.2,1.9,0.7s0.7,1.1,0.7,1.8c0,0.4-0.1,0.7-0.2,1c-0.1,0.3-0.3,0.6-0.5,0.8
			c-0.2,0.2-0.4,0.4-0.7,0.5c-0.3,0.1-0.5,0.2-0.8,0.2l2.2,3.4h-1.2l-2.1-3.3h-1.7v3.3H172.1z M173.1,28.3h2.2
			c0.5,0,0.9-0.1,1.2-0.4c0.3-0.3,0.5-0.7,0.5-1.2c0-0.5-0.2-0.9-0.5-1.1c-0.3-0.3-0.7-0.4-1.2-0.4h-2.2V28.3z"/>
	</g>
</g>
</svg>
