<svg xmlns="http://www.w3.org/2000/svg" width="48.795" height="78.808" viewBox="0 0 48.795 78.808">
  <g id="Group_50" data-name="Group 50" transform="translate(-859.92 -3767.644)">
    <g id="Group_49" data-name="Group 49">
      <path id="Path_12" data-name="Path 12" d="M904.273,3767.644H864.361a4.444,4.444,0,0,0-4.441,4.438v69.932a4.444,4.444,0,0,0,4.441,4.438h39.912a4.445,4.445,0,0,0,4.442-4.438v-69.932A4.445,4.445,0,0,0,904.273,3767.644Zm2.886,74.37a2.888,2.888,0,0,1-2.886,2.882H864.361a2.887,2.887,0,0,1-2.885-2.882v-7.524h45.683Zm0-9.032H861.476v-53.958h45.683Zm0-55.467H861.476v-5.433a2.887,2.887,0,0,1,2.885-2.884h39.912a2.888,2.888,0,0,1,2.886,2.884Z" fill="#de0022"/>
      <path id="Path_13" data-name="Path 13" d="M884.318,3838.044a1.695,1.695,0,1,0,1.694,1.7A1.7,1.7,0,0,0,884.318,3838.044Z" fill="#de0022"/>
    </g>
    <path id="Path_14" data-name="Path 14" d="M869.375,3834.365h30.648v-1.379h-.576v-23.5c0-.986-.136-1.123-1.129-1.124h-1.355q-2.035,0-4.067,0c-.8,0-.984.184-.984.977,0,5.61,0,17.221,0,22.833v.817H888.8l-.02-.366c-.006-.15-.013-.293-.025-.437-.093-1.189-.415-3.723-.755-6.406-.357-2.818-.727-5.732-.819-7.019a1.08,1.08,0,0,1,.277-.768,3.76,3.76,0,0,0,.707-4.707c-.856-1.531-1.738-3.038-2.591-4.5a.821.821,0,0,0-.65-.49.84.84,0,0,0-.663.5c-.853,1.457-1.735,2.963-2.592,4.495a3.758,3.758,0,0,0,.528,4.51.982.982,0,0,1,.264.659c-.1,1.374-.484,4.38-.854,7.285-.349,2.764-.68,5.375-.785,6.644-.009.109-.021.217-.034.338l-.026.251h-3.093v-3.432c0-4.416,0-11.089-.012-13.927a2.466,2.466,0,0,0-.235-1.021c-.57-1.172-1.164-2.356-1.739-3.5q-.527-1.048-1.05-2.1c-.223-.451-.4-.69-.71-.609a1.285,1.285,0,0,0-.72.6c-.86,1.649-1.759,3.442-2.829,5.644a2.465,2.465,0,0,0-.231,1.024c-.014,2.8-.012,9.416-.011,13.792v3.531h-.756Zm23.9-24.652h4.8v1.735l-.108.015a3.826,3.826,0,0,1-.43.023c-.58.011-.936.047-.948.631-.014.622.352.667.952.688a3.853,3.853,0,0,1,.445.032l.107.017v2.449l-.1.019a3.307,3.307,0,0,1-.461.04c-.576.023-.931.07-.955.715-.015.38.185.562,1.4.633l.118.007v2.481l-.1.021a2.966,2.966,0,0,1-.5.045,1.142,1.142,0,0,0-.778.19.683.683,0,0,0-.13.506c.022.563.354.6.939.608a3.99,3.99,0,0,1,.441.025l.108.014v3.271l-.1.018a3.254,3.254,0,0,1-.46.033,1.165,1.165,0,0,0-.794.191.684.684,0,0,0-.128.514c.028.57.394.607.99.62.133,0,.265.006.389.019l.113.012v7.708h-4.814Zm-10.533,4.371c.448-.828.917-1.633,1.413-2.485.214-.368.431-.741.651-1.123l.108-.189.108.189q.337.585.662,1.142c.488.838.949,1.629,1.389,2.44a2.4,2.4,0,0,1-.631,3.052,2.444,2.444,0,0,1-3.7-3.026Zm3.662,9.821h-3.225l.506-5h2.216Zm-4.239,8.958c0-.269.249-2,.512-3.833.24-1.671.488-3.4.488-3.629v-.125H886.4v.125c0,.226.247,1.947.485,3.611.265,1.842.515,3.582.515,3.851v.125h-5.227ZM876.3,3833H874.6v-17.058H876.3Zm-2.4-22.5,2.035,4.063h-4.055Zm-2.406,5.449h1.714V3833h-1.714Z" fill="#de0022"/>
  </g>
</svg>