<?xml version="1.0" encoding="utf-8"?>
<!-- Generator: Adobe Illustrator 24.0.1, SVG Export Plug-In . SVG Version: 6.00 Build 0)  -->
<svg version="1.1" id="Layer_1" xmlns="http://www.w3.org/2000/svg" xmlns:xlink="http://www.w3.org/1999/xlink" x="0px" y="0px"
	 viewBox="0 0 103 100.7" style="enable-background:new 0 0 103 100.7;" xml:space="preserve">
<style type="text/css">
	.st0{fill:#6C6C6C;}
</style>
<g>
	<path class="st0" d="M47.6,48.4c1.8,0,3.7,0,5.6,0c1.3,0,2.4,0.8,2.4,2c0,1.2-0.8,2-2.4,2c-3.7,0-7.5,0-11.1,0
		c-1.5,0-2.4-0.8-2.4-2c0-1.2,0.8-2,2.2-2C43.9,48.4,45.7,48.4,47.6,48.4z"/>
	<path class="st0" d="M63.3,50.5c0,1-1,2-2,1.8c-1.2-0.2-1.8-0.8-1.8-2c0-1,0.8-2,2-2C62.5,48.4,63.3,49.4,63.3,50.5z"/>
</g>
<g>
	<path class="st0" d="M76,24.1c0.8,0,1.3,0.6,1.1,1.3c-0.2,0.6-0.6,0.7-1.2,0.7c-1.3,0-2.6,0-3.9,0c0,0.7,0,1.4,0,2.2
		c0.7,0,1.2,0,1.9,0c0.8,0,1.3,0.3,1.3,1c0,0.7-0.4,1.1-1.2,1.1c-0.7,0-1.2,0-1.9,0c0,1.1,0,2.2,0,3.2c1.3,0,2.7,0,3.9,0
		c0.6,0,1,0.2,1.1,0.7c0.1,0.3-0.1,0.8-0.3,1c-0.2,0.2-0.7,0.2-1,0.2c-1.2,0-2.5,0-3.7,0c0,1,0,2,0,3c0.7,0,1.4,0,2.1,0
		c0.7,0,1.2,0.4,1.2,1c0,0.6-0.5,1-1.2,1.1c-0.7,0-1.3,0-2.1,0c0,0.8,0,1.6,0,2.3c1.2,0,2.5,0,3.7,0c0.8,0,1.3,0.3,1.3,1
		s-0.5,1-1.3,1c-1.2,0-2.5,0-3.7,0c0,0.9,0,1.8,0,2.7c0.7,0,1.4,0,2.1,0c0.7,0,1.2,0.4,1.2,1c0,0.6-0.4,1-1.2,1c-0.7,0-1.3,0-2.1,0
		c0,0.9,0,1.7,0,2.6c1.3,0,2.5,0,3.7,0c0.8,0,1.3,0.4,1.3,1c0,0.7-0.5,1-1.3,1c-1.2,0-2.4,0-3.7,0c0,1.1,0,2.1,0,3.2
		c0.7,0,1.3,0,2,0c0.8,0,1.2,0.4,1.2,1.1c0,0.6-0.5,1-1.2,1c-0.7,0-1.3,0-2,0c0,0.7,0,1.4,0,2.2c1.4,0,2.7,0,4.1,0c0.7,0,1,0.4,1,1
		c0,0.7-0.4,0.9-1,1c-0.3,0-0.7,0-1,0c-1,0-2.1,0-3.2,0c0,1.1,0,2.1,0,3.2c3.7,0,7.1,0,10.7,0c0-15.5-0.1-30.9-0.1-46.4
		c-3.7,0-7.1,0-10.8,0c0,1.2,0,2.2,0,3.2C73.4,24.1,74.7,24.1,76,24.1z"/>
	<path class="st0" d="M101.9,21c0-6.6-4.1-10.6-10.6-10.6c-26.6,0-53.2,0-79.8,0c-6.4,0-10.5,4.1-10.5,10.5c0,19.6,0,39.3,0,58.9
		c0,6.6,4.1,10.5,10.6,10.6c9.3,0,18.6,0,27.9,0c0.5,0,1.2,0,1.8,0h4.1c3.9,0,7.8,0,11.7,0h4.1c0.7,0,1.3,0,1.8,0
		c9.3,0,18.6-0.2,27.9,0c6.4,0.2,10.8-4.7,10.8-10.6C101.8,60.1,101.9,40.7,101.9,21z M71.4,18.9c4.1,0,8.1,0,12.1,0
		c1.1,0,1.3,0.3,1.3,1.4c0,15.7,0.1,31.4,0.1,47.1c0,0.6-0.1,1.2-0.2,1.7c-0.5,0.1-0.7,0.2-1.1,0.2c-4.2,0-8.2,0-12.4,0
		c-0.9,0-1.3-0.3-1.3-1.3c0-13.8-0.1-27.5-0.1-41.3c0-2.2,0-4.3,0-6.5C70,19.1,70.4,18.9,71.4,18.9z M47.5,40
		c1.3-2.4,2.7-4.7,4.2-7.2c1.5,2.6,2.8,4.8,4.2,7.2c1.1,2,0.5,4.4-1.2,5.8c-1.6,1.2-4.1,1.3-5.8,0C47.1,44.5,46.4,42.1,47.5,40z
		 M47.8,61.2c0.3-4.1,0.8-8.1,1.2-12.1c1.7,0,3.2,0,5.1,0c0.3,4.1,0.8,8,1.2,12.1C52.7,61.2,50.3,61.2,47.8,61.2z M55.2,65.3
		c0,1.2,0,2.4,0,3.7c-2.6,0-4.9,0-7.6,0c0-1.3,0-2.6,0-3.7C50.2,65.3,52.7,65.3,55.2,65.3z M23.7,28.1c1.5,3.2,3.1,6.1,4.6,9.3
		c-3.1,0-5.9,0-9.1,0C20.7,34.4,22.2,31.4,23.7,28.1z M29.6,41.5c0,9.1,0,18.1,0,27.4c-1.2,0-2.4,0-3.7,0c0-9.1,0-18.3,0-27.4
		C27.1,41.5,28.3,41.5,29.6,41.5z M18,41.5c1.2,0,2.6,0,3.7,0c0,9,0,18.1,0,27.4c-1.2,0-2.4,0-3.7,0C18,59.8,18,50.8,18,41.5z
		 M97.9,82c-0.3,2.4-2.6,4.2-5.1,4.4c-0.5,0-1.2,0-1.7,0c-26.4,0-52.7,0-79,0c-2,0.2-3.9,0-5.1-1.5c-0.8-1-1.7-2.4-1.8-3.6
		c-0.3-2,0-4.2,0-6.6c31,0,61.8,0,92.8,0C97.9,77.2,98,79.6,97.9,82z"/>
</g>
</svg>
